<svg xmlns="http://www.w3.org/2000/svg" viewBox="0 0 500 500"><g id="freepik--background-complete--inject-18"><path d="M77.59,312.42l-13.12.28-6.66.11c-2.23.05-4.47,0-6.7.05h-.44v-.45l-.06-11.19v-.5h.5l13.24.06c4.42,0,8.83.11,13.24.17h.28v.27c0,1.9-.09,3.79-.13,5.65Zm0,0-.14-5.65c0-1.87-.11-3.71-.13-5.54l.27.27c-4.41.05-8.82.16-13.24.17l-13.24.06.5-.5,0,11.19-.45-.45c2.18,0,4.36,0,6.55.06l6.58.11Z" style="fill:#ebebeb"></path><path d="M62.82,326.53l-13.12.28-6.66.11c-2.23.05-4.47,0-6.7.05H35.9v-.45l-.06-11.19v-.5h.5l13.24.06c4.41,0,8.83.11,13.24.17h.28v.27c0,1.9-.08,3.79-.13,5.65Zm0,0-.14-5.66c0-1.86-.11-3.7-.13-5.53l.27.27c-4.41.05-8.83.16-13.24.17l-13.24.06.5-.5-.05,11.19-.45-.45c2.18,0,4.36,0,6.55.06l6.58.11Z" style="fill:#ebebeb"></path><path d="M327.94,243.61l-13.12.28-6.66.11c-2.23.05-4.46,0-6.7.05H301v-.45L301,232.42v-.5h.5l13.24.06c4.42,0,8.83.11,13.24.17h.28v.27c0,1.9-.09,3.78-.13,5.65Zm0,0L327.8,238c0-1.86-.11-3.7-.13-5.53l.27.27c-4.41.05-8.82.16-13.24.16l-13.24.07.5-.5,0,11.19-.45-.45c2.19,0,4.36,0,6.55.06l6.58.11Z" style="fill:#ebebeb"></path><path d="M313.17,257.72l-13.12.28-6.66.11c-2.23.05-4.47,0-6.7.05h-.44v-.45l-.06-11.19V246h.5l13.24.06c4.42,0,8.83.11,13.24.16h.28v.27c0,1.9-.09,3.78-.14,5.65Zm0,0-.14-5.66c0-1.86-.11-3.7-.13-5.53l.27.27c-4.41,0-8.82.16-13.24.16l-13.24.07.5-.5-.05,11.19-.45-.45c2.18,0,4.36,0,6.55.06l6.58.11Z" style="fill:#ebebeb"></path><path d="M298.46,243.61l-13.13.28-6.66.11c-2.22.05-4.46,0-6.69.05h-.45v-.45l0-11.19v-.5h.5l13.24.06c4.41,0,8.83.11,13.24.17h.27v.27c0,1.9-.08,3.78-.13,5.65Zm0,0-.14-5.66c-.05-1.86-.12-3.7-.13-5.53l.27.27c-4.41.05-8.83.16-13.24.16l-13.24.07.5-.5-.06,11.19-.44-.45c2.18,0,4.36,0,6.54.06l6.58.11Z" style="fill:#ebebeb"></path><path d="M463.66,326.53l-13.13.28-6.66.11c-2.22.05-4.46,0-6.69.05h-.45v-.45l-.05-11.19v-.5h.5l13.24.06c4.41,0,8.83.11,13.24.17h.27v.27c0,1.9-.08,3.79-.13,5.65Zm0,0-.14-5.66c0-1.86-.12-3.7-.13-5.53l.27.27c-4.41.05-8.83.16-13.24.17l-13.24.06.5-.5-.06,11.19-.44-.45c2.18,0,4.36,0,6.54.06l6.58.11Z" style="fill:#ebebeb"></path><path d="M448.89,52.85l-13.13.28-6.66.11c-2.22,0-4.46,0-6.69.06H422v-.45l0-11.19v-.5h.51l13.24.06c4.41,0,8.82.12,13.24.17h.27v.27c0,1.9-.09,3.79-.13,5.65Zm0,0-.14-5.65c-.05-1.87-.12-3.71-.14-5.54l.28.27c-4.42,0-8.83.16-13.24.17l-13.24.06.5-.5-.06,11.19-.44-.45c2.18,0,4.35,0,6.54.06l6.58.11Z" style="fill:#ebebeb"></path><path d="M463.66,67l-13.13.28-6.66.11c-2.22.05-4.46,0-6.69.05h-.45V67l-.05-11.19v-.5h.5l13.24.06c4.41,0,8.83.12,13.24.17h.27v.27c0,1.9-.08,3.79-.13,5.65Zm0,0-.14-5.65c0-1.87-.12-3.71-.13-5.54l.27.27c-4.41.05-8.83.16-13.24.17l-13.24.06.5-.5L437.62,67l-.44-.45c2.18,0,4.36,0,6.54.06l6.58.11Z" style="fill:#ebebeb"></path><path d="M77.59,52.85l-13.12.28-6.66.11c-2.23,0-4.47,0-6.7.06h-.44v-.45l-.06-11.19v-.5h.5l13.24.06c4.42,0,8.83.12,13.24.17h.28v.27c0,1.9-.09,3.79-.13,5.65Zm0,0-.14-5.65c0-1.87-.11-3.71-.13-5.54l.27.27c-4.41,0-8.82.16-13.24.17l-13.24.06.5-.5,0,11.19-.45-.45c2.18,0,4.36,0,6.55.06l6.58.11Z" style="fill:#ebebeb"></path><rect x="376.46" y="231.46" width="88.07" height="207.31" style="fill:#dbdbdb"></rect><rect x="385.4" y="131.54" width="70.2" height="83.49" style="fill:#ebebeb"></rect><polygon points="438.37 231.46 402.62 231.46 385.4 215.03 455.6 215.03 438.37 231.46" style="fill:#ebebeb"></polygon><rect x="382.8" y="208.6" width="75.4" height="6.43" style="fill:#ebebeb"></rect><path d="M458.2,208.6l-37.83.31c-12.56.11-25.05.1-37.57.14l.45-.45V215l-.46-.46,37.7.08,18.85.12,18.85.19-.07.07Zm0,0,.07,6.43v.07h-.07l-18.85.19-18.85.12-37.7.08h-.47V215l0-6.43v-.45h.45c12.61,0,25.25,0,37.83.14Z" style="fill:#dbdbdb"></path><rect x="382.8" y="140.14" width="75.4" height="6.43" style="fill:#ebebeb"></rect><path d="M458.2,140.14l-37.83.31c-12.56.12-25.05.1-37.57.14l.45-.45v6.44l-.46-.47,37.7.09,18.85.12,18.85.18-.07.08Zm0,0,.07,6.44v.07h-.07l-18.85.18L420.5,147l-37.7.09h-.47v-.46l0-6.44v-.45h.45c12.61,0,25.25,0,37.83.14Z" style="fill:#dbdbdb"></path><rect x="382.8" y="200.72" width="75.4" height="6.43" style="fill:#ebebeb"></rect><path d="M458.2,200.72l-37.83.31c-12.56.11-25.05.1-37.57.14l.45-.45v6.43l-.46-.46,37.7.09,18.85.11,18.85.19-.07.07Zm0,0,.07,6.43v.07h-.07l-18.85.18-18.85.12-37.7.09h-.47v-.47l0-6.43v-.45h.45c12.61,0,25.25,0,37.83.14Z" style="fill:#dbdbdb"></path><rect x="388.87" y="246.41" width="63.25" height="85.06" style="fill:#c7c7c7"></rect><rect x="399.29" y="246.41" width="11.11" height="42.53" style="fill:#ebebeb"></rect><rect x="397.44" y="281.9" width="14.8" height="2.37" style="fill:#dbdbdb"></rect><rect x="397.44" y="252.69" width="14.8" height="2.37" style="fill:#dbdbdb"></rect><rect x="397.44" y="278.3" width="14.8" height="2.37" style="fill:#dbdbdb"></rect><rect x="404.15" y="277.02" width="1.58" height="13.08" style="fill:#a6a6a6"></rect><rect x="402.93" y="287.27" width="4.01" height="4.28" style="fill:#a6a6a6"></rect><rect x="430.6" y="246.41" width="11.11" height="42.53" style="fill:#ebebeb"></rect><rect x="428.75" y="281.9" width="14.8" height="2.37" style="fill:#dbdbdb"></rect><rect x="428.75" y="252.69" width="14.8" height="2.37" style="fill:#dbdbdb"></rect><rect x="428.75" y="278.3" width="14.8" height="2.37" style="fill:#dbdbdb"></rect><rect x="435.46" y="277.02" width="1.58" height="13.08" style="fill:#a6a6a6"></rect><rect x="434.24" y="287.27" width="4.01" height="4.28" style="fill:#a6a6a6"></rect><circle cx="101.47" cy="79.16" r="32.96" transform="translate(-11.18 141.39) rotate(-66.88)" style="fill:#ebebeb"></circle><circle cx="102.98" cy="79.9" r="31.45" transform="translate(-27.36 78.99) rotate(-37.41)" style="fill:#dbdbdb"></circle><circle cx="102.98" cy="79.9" r="29.46" transform="translate(-25.43 57.55) rotate(-27.93)" style="fill:#fff"></circle><path d="M131.78,73.64C118.36,81.77,96.31,95.11,84,102.42a29.6,29.6,0,0,1-8-10.83l40.76-37.78A29.5,29.5,0,0,1,131.78,73.64Z" style="fill:#ebebeb;opacity:0.5"></path><path d="M132.42,80.92a29.29,29.29,0,0,1-1.94,9.58L93.73,107.88a29,29,0,0,1-4.64-2C100.19,99.47,120.47,87.8,132.42,80.92Z" style="fill:#ebebeb;opacity:0.5"></path><rect x="102.7" y="52.57" width="0.57" height="4.47" style="fill:#c7c7c7"></rect><rect x="90.15" y="55.93" width="0.57" height="4.47" transform="translate(-16.97 53) rotate(-30)" style="fill:#c7c7c7"></rect><rect x="80.97" y="65.12" width="0.57" height="4.47" transform="translate(-17.7 104.03) rotate(-60)" style="fill:#c7c7c7"></rect><rect x="75.66" y="79.61" width="4.47" height="0.57" style="fill:#c7c7c7"></rect><rect x="79.02" y="92.16" width="4.47" height="0.57" transform="translate(-35.34 53.02) rotate(-30.01)" style="fill:#c7c7c7"></rect><rect x="88.2" y="101.34" width="4.47" height="0.57" transform="translate(-42.78 129.21) rotate(-60.03)" style="fill:#c7c7c7"></rect><rect x="102.7" y="102.75" width="0.57" height="4.47" style="fill:#c7c7c7"></rect><rect x="115.24" y="99.39" width="0.57" height="4.47" transform="translate(-35.33 71.38) rotate(-30)" style="fill:#c7c7c7"></rect><rect x="124.43" y="90.21" width="0.57" height="4.47" transform="translate(-17.71 154.21) rotate(-59.99)" style="fill:#c7c7c7"></rect><rect x="125.84" y="79.61" width="4.47" height="0.57" style="fill:#c7c7c7"></rect><rect x="122.48" y="67.07" width="4.47" height="0.57" transform="translate(-16.97 71.41) rotate(-30.01)" style="fill:#c7c7c7"></rect><rect x="113.29" y="57.88" width="4.47" height="0.57" transform="translate(7.43 129.19) rotate(-60.03)" style="fill:#c7c7c7"></rect><polygon points="103.41 54.59 104.38 81.88 101.58 81.85 102.65 54.58 103.41 54.59" style="fill:#c7c7c7"></polygon><polygon points="120.41 70.38 102.05 82.1 100.71 79.64 120.05 69.71 120.41 70.38" style="fill:#a6a6a6"></polygon><path d="M103.93,79.9a1,1,0,1,1-1-1A.95.95,0,0,1,103.93,79.9Z" style="fill:#c7c7c7"></path><rect x="194.43" y="93.62" width="57.42" height="37.49" style="fill:#dbdbdb"></rect><rect x="194.43" y="133.31" width="57.42" height="37.49" style="fill:#ebebeb"></rect><rect x="200.11" y="140.52" width="5.58" height="5.58" style="fill:#fff"></rect><rect x="206.85" y="140.52" width="5.58" height="5.58" style="fill:#dbdbdb"></rect><rect x="213.6" y="140.52" width="5.58" height="5.58" style="fill:#fff"></rect><rect x="220.34" y="140.52" width="5.58" height="5.58" style="fill:#fff"></rect><rect x="227.09" y="140.52" width="5.58" height="5.58" style="fill:#fff"></rect><rect x="233.84" y="140.52" width="5.58" height="5.58" style="fill:#fff"></rect><rect x="240.58" y="140.52" width="5.58" height="5.58" style="fill:#fff"></rect><rect x="200.11" y="147.31" width="5.58" height="5.58" style="fill:#fff"></rect><rect x="206.85" y="147.31" width="5.58" height="5.58" style="fill:#fff"></rect><rect x="213.6" y="147.31" width="5.58" height="5.58" style="fill:#fff"></rect><rect x="220.34" y="147.31" width="5.58" height="5.58" style="fill:#fff"></rect><rect x="227.09" y="147.31" width="5.58" height="5.58" style="fill:#dbdbdb"></rect><rect x="233.84" y="147.31" width="5.58" height="5.58" style="fill:#fff"></rect><rect x="240.58" y="147.31" width="5.58" height="5.58" style="fill:#fff"></rect><rect x="200.11" y="154.1" width="5.58" height="5.58" style="fill:#fff"></rect><rect x="206.85" y="154.1" width="5.58" height="5.58" style="fill:#fff"></rect><rect x="213.6" y="154.1" width="5.58" height="5.58" style="fill:#fff"></rect><rect x="220.34" y="154.1" width="5.58" height="5.58" style="fill:#fff"></rect><rect x="227.09" y="154.1" width="5.58" height="5.58" style="fill:#fff"></rect><rect x="233.84" y="154.1" width="5.58" height="5.58" style="fill:#fff"></rect><rect x="240.58" y="154.1" width="5.58" height="5.58" style="fill:#fff"></rect><rect x="200.11" y="160.89" width="5.58" height="5.58" style="fill:#fff"></rect><rect x="206.85" y="160.89" width="5.58" height="5.58" style="fill:#fff"></rect><rect x="213.6" y="160.89" width="5.58" height="5.58" style="fill:#fff"></rect><rect x="220.34" y="160.89" width="5.58" height="5.58" style="fill:#fff"></rect><rect x="227.09" y="160.89" width="5.58" height="5.58" style="fill:#fff"></rect><rect x="233.84" y="160.89" width="5.58" height="5.58" style="fill:#fff"></rect><rect x="240.58" y="160.89" width="5.58" height="5.58" style="fill:#fff"></rect><rect x="196.68" y="129.33" width="2.18" height="5.76" style="fill:#c7c7c7"></rect><rect x="201.75" y="129.33" width="2.18" height="5.76" style="fill:#c7c7c7"></rect><rect x="206.82" y="129.33" width="2.18" height="5.76" style="fill:#c7c7c7"></rect><rect x="211.9" y="129.33" width="2.18" height="5.76" style="fill:#c7c7c7"></rect><rect x="216.97" y="129.33" width="2.18" height="5.76" style="fill:#c7c7c7"></rect><rect x="222.05" y="129.33" width="2.18" height="5.76" style="fill:#c7c7c7"></rect><rect x="227.12" y="129.33" width="2.18" height="5.76" style="fill:#c7c7c7"></rect><rect x="232.19" y="129.33" width="2.18" height="5.76" style="fill:#c7c7c7"></rect><rect x="237.27" y="129.33" width="2.18" height="5.76" style="fill:#c7c7c7"></rect><rect x="242.34" y="129.33" width="2.18" height="5.76" style="fill:#c7c7c7"></rect><rect x="247.42" y="129.33" width="2.18" height="5.76" style="fill:#c7c7c7"></rect></g><g id="freepik--Shadow--inject-18"><ellipse cx="345.33" cy="474.27" rx="119.21" ry="11.1" style="fill:#ebebeb"></ellipse></g><g id="freepik--Floor--inject-18"><polygon points="35.47 438.61 89.1 438.37 142.73 438.28 250 438.11 357.27 438.28 410.9 438.37 464.53 438.61 410.9 438.86 357.27 438.94 250 439.11 142.73 438.94 89.1 438.86 35.47 438.61" style="fill:#263238"></polygon></g><g id="freepik--character-1--inject-18"><polygon points="180.18 319.11 182.99 335.94 202 438.61 205.06 438.61 191.24 335.94 189.19 319.11 180.18 319.11" style="fill:#dbdbdb"></polygon><polygon points="189.19 319.11 180.18 319.11 182.99 335.94 191.24 335.94 189.19 319.11" style="fill:#a6a6a6"></polygon><polygon points="120.47 438.61 123.54 438.61 142.55 335.94 145.36 319.11 136.34 319.11 134.3 335.94 120.47 438.61" style="fill:#dbdbdb"></polygon><polygon points="136.34 319.11 134.3 335.94 142.55 335.94 145.36 319.11 136.34 319.11" style="fill:#a6a6a6"></polygon><polygon points="63.44 438.61 66.51 438.61 85.52 335.94 88.33 319.11 79.31 319.11 77.27 335.94 63.44 438.61" style="fill:#dbdbdb"></polygon><polygon points="77.27 335.94 85.52 335.94 88.33 319.11 79.31 319.11 77.27 335.94" style="fill:#a6a6a6"></polygon><polygon points="68.31 327.01 207.63 327.01 207.63 312.33 155.47 312.33 137.94 210.35 73.62 210.35 68.31 327.01" style="fill:#dbdbdb"></polygon><polygon points="68.31 327.01 75.9 327.01 80.85 210.35 73.62 210.35 68.31 327.01" style="fill:#a6a6a6"></polygon><path d="M201.14,439.71c-2.52.31-71.16-15.7-73.39-17.86-.28-.24,3-13.42,3-13.42,1.08-5.43,19-49.7,19-49.7l44.88,11.07-19,41s8.55,5.79,15.91,11.31c0,0,0,0,0,0,4.54,3.39,8.46,6.44,9.3,7.44C203,432.23,203.65,439.41,201.14,439.71Z" style="fill:#d3766a"></path><path d="M201.14,439.71c-2.52.32-71.16-15.7-73.39-17.86-.27-.24,3-13.43,3-13.43.37-1.77,2.53-7.76,5.29-15l43,10-3.42,7.4s8.55,5.8,15.91,11.32c0,0,0,0,0,0,4.54,3.38,8.47,6.44,9.3,7.43C203,432.23,203.65,439.41,201.14,439.71Z" style="fill:#ebebeb"></path><path d="M201.34,439.91c-2.6.27-71.81-15.24-74.06-17.51-.88-.84,5.26-23.13,5.29-23.26l44.3,9.78-.19.75s22.26,17.07,24.48,19.82S203.93,439.64,201.34,439.91Z" style="fill:#a6a6a6"></path><path d="M201.16,437.05c-11.61-2.9-58.67-13.51-70.36-15.49-.1,0-.11,0,0,.07,11.44,3.13,58.59,13.35,70.33,15.61C201.36,437.29,201.4,437.11,201.16,437.05Z" style="fill:#263238"></path><path d="M180.24,409.46c-4.4-1.89-10.17-2.44-14.42,0-.16.09,0,.32.14.31a66.11,66.11,0,0,1,14.13.22A.3.3,0,0,0,180.24,409.46Z" style="fill:#263238"></path><path d="M183.1,412.19c-4.4-1.88-10.17-2.44-14.41,0-.17.1,0,.33.13.32a66.1,66.1,0,0,1,14.13.22A.3.3,0,0,0,183.1,412.19Z" style="fill:#263238"></path><path d="M186,414.93c-4.4-1.89-10.17-2.44-14.42,0-.16.1,0,.33.14.31a66.76,66.76,0,0,1,14.13.22A.3.3,0,0,0,186,414.93Z" style="fill:#263238"></path><path d="M188.45,400.79c-1.24-2.88-4.85-2.52-7.13-1.34a25.09,25.09,0,0,0-9.43,8.92.13.13,0,0,0,.07.19.58.58,0,0,0,.59.73c4.11-.55,8.56-.63,12.38-2.43C187.15,405.81,189.63,403.52,188.45,400.79Zm-9.85,6.39c-2,.32-4,.54-6,.94A75.36,75.36,0,0,1,178.2,403a26.09,26.09,0,0,1,3-2.08c1.64-.93,7.64-2.36,5.71,2.49C185.86,406.11,181,406.8,178.6,407.18Z" style="fill:#263238"></path><path d="M160.49,404.56c3.42,2.45,7.79,3.35,11.73,4.64.4.13.71-.26.71-.62a.12.12,0,0,0,.11-.17,25.06,25.06,0,0,0-7.65-10.48c-2-1.58-5.5-2.59-7.26,0S158.49,403.12,160.49,404.56Zm-1.34-3.74c-1-5.12,4.62-2.62,6.07-1.4a27.53,27.53,0,0,1,2.59,2.59c1.7,1.89,3.1,4,4.6,6-1.9-.75-3.84-1.34-5.76-2C164.36,405.21,159.72,403.64,159.15,400.82Z" style="fill:#263238"></path><path d="M179.05,409.3l-47.88-10.72s39.48-91.61,36-96.25c-1.75-2.31-46.1-3-60.21-14.95-18.33-15.52-6-42.27-6-42.27l54.94-.07s-2.32,12-.39,13.53c1.28,1,56.62,6,63.1,25.89C226.52,308.85,179.05,409.3,179.05,409.3Z" style="fill:#37474f"></path><path d="M180.42,400.63c-1.27-.53-13.63-4-16.4-4.74-5.58-1.43-11.16-2.83-16.76-4.15-2.92-.68-9.18-2.17-9.56-2.14a.15.15,0,0,0,0,.3c5.47,1.7,11,3.19,16.51,4.7s24.48,6.14,26.13,6.32C180.47,400.94,180.59,400.71,180.42,400.63Z" style="fill:#263238"></path><path d="M175.63,298.23c-1-.85-2.49-1-3.74-1.16l-21.45-3.6c-6.69-1.12-13.42-2.12-20.08-3.4-5.51-1.06-11.12-2.5-15.89-5.49a23.07,23.07,0,0,1-9.74-12.74,41.23,41.23,0,0,1-1.26-16.32c.13-1.33.37-2.66.62-4a.08.08,0,0,0-.16,0c-1.81,10.14-2,21.91,5.64,30,3.7,3.94,8.8,6.26,14,7.76,5.86,1.69,12,2.49,18,3.5q10.72,1.79,21.46,3.57c3.44.58,6.93,1,10.34,1.74a3.5,3.5,0,0,1,1.87.82,2.66,2.66,0,0,1,.3,2.48c-.35,1.68-.8,3.35-1.28,5-3.91,13.32-30.25,76.86-31,78.33-.08.15.16.27.24.12,6.56-11.68,25.65-60.76,30-73.36a80,80,0,0,0,2.82-9.8C176.53,300.48,176.68,299.12,175.63,298.23Z" style="fill:#263238"></path><path d="M294.63,440.45c-2.4.8-71.11-.16-73.72-1.84-1-1-1.82-9.75-2.45-20.68l-11.82-46.86,44.21-.37,12.94,46.54s9.54,4,17.85,7.92l0,0c5.12,2.42,9.57,4.63,10.59,5.45C294.91,432.75,297,439.66,294.63,440.45Z" style="fill:#d3766a"></path><path d="M296,440.49c-2.48.83-73.4.49-76.09-1.24-1-.64-1.59-11-1.9-23.46v-.39l45.76-.29,0,.78s27.09,12.25,29.85,14.46S298.53,439.68,296,440.49Z" style="fill:#a6a6a6"></path><path d="M295.25,437.74c-11.95-.35-60.2-.63-72-.07-.1,0-.1.07,0,.07,11.84.61,60.09.5,72,.2C295.51,437.93,295.51,437.75,295.25,437.74Z" style="fill:#263238"></path><path d="M268.9,415.27c-4.7-.9-10.46-.21-14.07,3.12-.14.13,0,.33.2.28a66,66,0,0,1,13.85-2.81A.3.3,0,0,0,268.9,415.27Z" style="fill:#263238"></path><path d="M272.28,417.33c-4.7-.9-10.45-.21-14.06,3.12-.14.13,0,.33.19.28a66,66,0,0,1,13.85-2.81A.3.3,0,0,0,272.28,417.33Z" style="fill:#263238"></path><path d="M275.67,419.39c-4.7-.9-10.46-.21-14.07,3.12-.14.13,0,.33.2.28A66,66,0,0,1,275.65,420,.3.3,0,0,0,275.67,419.39Z" style="fill:#263238"></path><path d="M275.07,405.05c-1.84-2.55-5.29-1.42-7.26.21a25.14,25.14,0,0,0-7.3,10.73.12.12,0,0,0,.11.17.58.58,0,0,0,.74.59c3.89-1.42,8.23-2.45,11.56-5C274.88,410.23,276.8,407.46,275.07,405.05Zm-8.25,8.35c-1.9.74-3.82,1.39-5.69,2.2a74.23,74.23,0,0,1,4.4-6.17,26.43,26.43,0,0,1,2.5-2.68c1.41-1.26,7-3.94,6.11,1.21C273.67,410.8,269.08,412.51,266.82,413.4Z" style="fill:#263238"></path><path d="M248.56,414.71c3.87,1.67,8.33,1.6,12.45,2,.43,0,.64-.4.57-.75a.12.12,0,0,0,.06-.19,25.12,25.12,0,0,0-9.71-8.61c-2.32-1.1-5.94-1.35-7.09,1.58C243.75,411.52,246.3,413.73,248.56,414.71Zm-2.11-3.36c-2.09-4.79,4-3.55,5.62-2.67a26.16,26.16,0,0,1,3.09,2,75.3,75.3,0,0,1,5.79,4.9c-2-.33-4-.48-6.06-.74C252.48,414.52,247.61,414,246.45,411.35Z" style="fill:#263238"></path><path d="M268.12,415.6l-51.58,0S194.47,328,190.56,323c-5.21-6.65-78.09-6.5-93.73-28.2-14-19.48-1.09-49.75-1.09-49.75h53.87a98,98,0,0,1-4.89,18.41s66.49,12.25,85.12,32.62C242.41,309.83,268.12,415.6,268.12,415.6Z" style="fill:#37474f"></path><path d="M154.35,259.68a26,26,0,0,0-4.68,1.5c-1.58.6-3.14,1.29-4.67,2a94.84,94.84,0,0,0-8.73,4.93c-.09.06,0,.18.09.13,3-1.55,6.07-2.94,9.16-4.27l4.46-1.92a46.41,46.41,0,0,0,4.51-2C154.67,260,154.57,259.64,154.35,259.68Z" style="fill:#263238"></path><path d="M151,246.07c-.63,2.52-1.18,5.06-1.9,7.55-.33,1.14-.66,2.31-1.09,3.42-.37.93-.92,2-2,2.21-1.25.24-1.61-.83-1.5-1.86a34,34,0,0,1,.63-3.44c.26-1.3.53-2.61.77-3.92.12-.66.78-3.73.78-3.77s0-.12-.06-.19a.11.11,0,0,0-.12,0,11.58,11.58,0,0,0-.93,2.61c-.34,1.2-.68,2.41-1,3.62s-.6,2.42-.9,3.64a5.64,5.64,0,0,0-.25,2.79,2.15,2.15,0,0,0,2,1.61c0,.08-.09.16-.13.25-.11.24-.19.51-.28.76a7.3,7.3,0,0,0-.26.79,1.78,1.78,0,0,0-.07.39c0,.14,0,.29,0,.43s.28.37.39.14.16-.23.24-.35a3.12,3.12,0,0,0,.18-.42c.08-.25.15-.5.22-.76s.14-.51.19-.77,0-.31.05-.46a2.83,2.83,0,0,0,1.45-.56,4.79,4.79,0,0,0,1.5-2.29c.38-1.05.68-2.14,1-3.21a47.71,47.71,0,0,0,1.61-8.11A.24.24,0,0,0,151,246.07Z" style="fill:#263238"></path><path d="M262.78,406.37a40.52,40.52,0,0,0-4.13-.26l-4.35-.17c-2.86-.08-5.72-.14-8.58-.15-5.75,0-11.51,0-17.26.08-3,.05-9.44.13-9.79.25a.15.15,0,0,0,0,.29c5.72.3,11.43.4,17.15.5s11.43.19,17.14.1c1.58,0,3.16-.09,4.75-.13a46.35,46.35,0,0,0,5-.22C262.91,406.64,263,406.39,262.78,406.37Z" style="fill:#263238"></path><path d="M196.57,323.72a15.35,15.35,0,0,0-2.15-4.44,7.84,7.84,0,0,0-4.23-2.17c-13.75-3.77-27.94-5.46-41.92-8.1a171.81,171.81,0,0,1-20.4-5,79.06,79.06,0,0,1-19.3-8.68,21.63,21.63,0,0,1-7.11-7.5,32.45,32.45,0,0,1-3.33-9.37,57.19,57.19,0,0,1,.05-22.65,52.34,52.34,0,0,1,1.41-5.51c0-.11-.14-.15-.17,0a54.86,54.86,0,0,0-3.11,22.5c.5,6.63,2.11,13.61,6.39,18.88a26.63,26.63,0,0,0,7.94,6.23,84.46,84.46,0,0,0,9.72,4.58,129,129,0,0,0,20,6c13.94,3.08,28.18,4.65,42.12,7.75,1.72.38,3.44.79,5.14,1.22a18.14,18.14,0,0,1,5.07,1.64c1.65,1,2.2,3.08,2.85,4.8.72,1.89,23.14,77.76,23.65,79.67.08.31.55.17.47-.14C217.74,395.64,198,327.44,196.57,323.72Z" style="fill:#263238"></path><path d="M192.5,325.73c-.52-1.65-1-3.43-2.52-4.44s-23.61-4-26.1-4.34c-.11,0-.16.16,0,.18,2.13.36,22.51,4,24.33,4.61a4.09,4.09,0,0,1,2,1.29,8.75,8.75,0,0,1,1.16,2.76c.63,2,1.26,3.95,1.88,5.93,1.26,4,2.52,7.92,3.71,11.91,1.36,4.51,2.91,9.24,4.07,13.81.09.35.59.18.53-.16C200,348.71,193.16,327.8,192.5,325.73Z" style="fill:#263238"></path><path d="M145,263.6a185.09,185.09,0,0,1,30.11,6.17,210.73,210.73,0,0,1,29.06,10.5c5.28,2.37,10.39,5,15.46,7.81.1.05,0,.2-.09.15a234.49,234.49,0,0,0-28.26-12.32,228.42,228.42,0,0,0-29.42-8.53c-5.63-1.23-11.29-2.18-17-3.12C144.51,264.2,144.61,263.55,145,263.6Z" style="fill:#263238"></path><path d="M136,189.17c21.26-2.68,48.55-9.68,54.61-16.61,4.89-5.59,16.4-40.29,16.77-42,.88-4.32-28.54-12.64-29.71-8.07-1.54,6-7.56,32.82-9.29,34.2s-16.15,9.94-32.73,19.53C124.18,182.81,122.78,190.83,136,189.17Z" style="fill:#d3766a"></path><path d="M207.13,131.17c1.11-3.13,7.26-19.95,7.4-24.29s-.37-16.87-3.68-17.31-3.46,3.24-3.46,3.24-1.06-5.26-4.43-5.4S199.54,93,199.54,93s-1.47-5.31-4.85-5.21-2.45,5.86-2.45,5.86-1.12-4.92-3.87-3.67c-3.31,1.51-.22,10.35-.73,15.13-.12,1.09-3.93,21.85-3.93,21.85Z" style="fill:#d3766a"></path><path d="M192.17,93.15c2.26,6.51,2.12,9.75.58,16.35,0,.13.15.21.19.07,2.1-6.33,2.86-10.37-.46-16.55C192.32,92.72,192.06,92.84,192.17,93.15Z" style="fill:#263238"></path><path d="M199.35,92.48c1.76,7,1.64,10.48.53,17.52,0,.1.15.14.18,0,1.66-6.82,2.33-10.86-.34-17.59C199.6,92.14,199.27,92.16,199.35,92.48Z" style="fill:#263238"></path><path d="M207.32,93.16c1.21,6.87,1.24,10.73-.71,17.42a.13.13,0,0,0,.24.09c2.66-6.63,2.65-11.45.68-17.52C207.4,92.73,207.24,92.73,207.32,93.16Z" style="fill:#263238"></path><path d="M179.56,130.53s-3.28-8-3.95-11.81,2.1-19,5.41-18.6c4.27.53,4.41,9.61,3.89,14.06,0,0,9.89,1.22,11.4,7.71S179.56,130.53,179.56,130.53Z" style="fill:#d3766a"></path><path d="M182.15,100.65c3.55,3.3,2.49,9.1,2.31,13.46a.4.4,0,0,0,.51.42c4.11.78,9.68,3.09,11.48,7.13a.1.1,0,0,0,.19-.07c-1.34-4.59-6.63-7.3-11.19-7.88.25-4.46,1.06-10.33-3.27-13.09C182.15,100.6,182.12,100.63,182.15,100.65Z" style="fill:#263238"></path><path d="M174.53,124.49,207,139.23s-12.41,32.38-18.52,36.31-35.89,12.67-51.56,13.83S125,183,133.4,177.05s33.91-20.53,34.33-21.07S174.53,124.49,174.53,124.49Z" style="fill:#FF725E"></path><path d="M198.68,143.64c-1.08-.53-2.15-1.1-3.24-1.61l-6.82-3.16c-2.27-1.05-4.56-2.09-6.85-3.12s-4.63-2-6.9-3a.09.09,0,0,0-.08.16c2.22,1.15,4.39,2.4,6.63,3.54s4.57,2.27,6.89,3.34,4.57,2.07,6.87,3c1.16.5,2.35.92,3.52,1.38s2.25.93,3.42,1.29c.08,0,.11-.09,0-.13C201,144.73,199.84,144.21,198.68,143.64Z" style="fill:#263238"></path><path d="M159.58,185.25a147.42,147.42,0,0,1-22.69,4.11c-15.67,1.16-11.85-6.34-3.5-12.31.64-.46,1.39-1,2.21-1.51Z" style="opacity:0.1"></path><path d="M157.15,251.87C155.57,253.4,88.31,260.4,88,260c-.9-1.22,11.67-64.34,38.61-86.09,4.75-3.83,12.66-2.22,16.25.08,1.79,1.15,6.75,10.21,8.17,18.28S158.13,250.9,157.15,251.87Z" style="fill:#FF725E"></path><path d="M127.72,191.4c-2.6,10.75-16,49-19.28,52.31-4,3.95-21.21,16.11-27.23-.07-4.17-11.21,24.16-50.49,37.55-63.16C125.3,174.29,132.08,173.38,127.72,191.4Z" style="fill:#FF725E"></path><path d="M127.25,199.18c-.66,1-1.35,2.1-2,3.18-.12.21-.24.44-.35.66.21-.72.42-1.43.62-2.15.5-1.84.91-3.69,1.36-5.55,0-.17-.21-.23-.27-.06-.52,1.59-1.1,3.15-1.62,4.74s-1,3-1.47,4.54c-1,3.14-2.09,6.26-3.16,9.37-2.13,6.2-4.44,12.34-6.87,18.42-1.35,3.37-2.74,6.74-4,10.13a.09.09,0,0,0,.16.07,173.68,173.68,0,0,0,7.87-18c2.35-6.08,4.53-12.21,6.45-18.44.16-.51.32-1,.47-1.54l.21-.34c.32-.54.64-1.08.94-1.63.61-1.11,1.15-2.26,1.7-3.39A0,0,0,0,0,127.25,199.18Z" style="fill:#263238"></path><path d="M140.72,184.61c-3.78,1.22-10.87-4.1-13.88-8.65-.2-.31.07-13.49-.15-16.1,0-.54,16.77,2.62,16.77,2.62a41.48,41.48,0,0,0-.76,10.18C142.74,173,144.37,183.42,140.72,184.61Z" style="fill:#d3766a"></path><path d="M143.46,162.48h0c0,.08-.08.41-.17.94-.15.89-.38,2.35-.52,4a31.32,31.32,0,0,0-.06,5.22c0,.13,0,.25,0,.37v0c0,.22.07.5.1.84a10.34,10.34,0,0,1-1.59.22c-8.95.54-12.87-10.18-14-14.32l.28,0c.44,0,1,.11,1.72.2l.54.08c1.12.16,2.45.38,3.83.6L135,161l2.93.51,1.17.21,1.2.21a5.3,5.3,0,0,0,.55.1,1.23,1.23,0,0,0,.25.05l1.4.26.66.12a2.28,2.28,0,0,1,.28.06h.06Z" style="fill:#263238"></path><path d="M121.06,142c-.75,6.06,5.2,22.13,9.94,25.12,6.88,4.33,16.69,3.14,20-4.79,3.22-7.68-4.9-28.5-10.07-31.06C133.34,127.51,122.17,133.07,121.06,142Z" style="fill:#d3766a"></path><path d="M138.67,148.78s-.07.08,0,.13c.45,1.08.77,2.4-.08,3.14a0,0,0,1,0,0,0C139.72,151.48,139.26,149.74,138.67,148.78Z" style="fill:#263238"></path><path d="M137.26,148c-1.82.53-.63,4.12,1.05,3.63S138.78,147.56,137.26,148Z" style="fill:#263238"></path><path d="M145.17,146.83s.11,0,.12.07c.33,1.13.9,2.36,2,2.4,0,0,.05,0,0,.06C146.05,149.59,145.31,148,145.17,146.83Z" style="fill:#263238"></path><path d="M145.78,145.34c1.75-.72,3.07,2.82,1.46,3.49S144.32,146,145.78,145.34Z" style="fill:#263238"></path><path d="M135.41,146.76a13.87,13.87,0,0,0,1.33-.81c.5-.31.94-.51,1.19-1.08a.79.79,0,0,0-.32-.92,2,2,0,0,0-2,.21,2.91,2.91,0,0,0-1.38,1.59A.85.85,0,0,0,135.41,146.76Z" style="fill:#263238"></path><path d="M146.57,142.91A13.46,13.46,0,0,1,145,143a2.5,2.5,0,0,1-1.6-.2.79.79,0,0,1-.26-.94,2,2,0,0,1,1.75-1,2.93,2.93,0,0,1,2,.5A.85.85,0,0,1,146.57,142.91Z" style="fill:#263238"></path><path d="M141.05,159.45a1.79,1.79,0,0,0,1.15.34,3.09,3.09,0,0,0,1.11-.67,0,0,0,0,1,.06,0,1.56,1.56,0,0,1-1.21,1.07,1.24,1.24,0,0,1-1.2-.7C140.92,159.48,141,159.42,141.05,159.45Z" style="fill:#263238"></path><path d="M141.12,155.73a4,4,0,0,0,3.09.85,4.82,4.82,0,0,0,1.38-.39l.25-.11.23-.12a.28.28,0,0,0,.14-.32h0a.27.27,0,0,0-.05-.11h0l0-.1c-.26-.86-.78-2.14-.78-2.14.37.06,2.2.25,2-.19a60.57,60.57,0,0,0-5.26-11c-.07-.11-.25,0-.19.1,1.25,3.55,3.11,6.85,4.43,10.39a7.07,7.07,0,0,0-2,0c-.11.07,1,2.45,1.12,2.84a.12.12,0,0,1,0,.05,5.56,5.56,0,0,1-4.33.08C141.09,155.56,141,155.66,141.12,155.73Z" style="fill:#263238"></path><path d="M144.94,155.93a4.76,4.76,0,0,1-1.34,2,2.15,2.15,0,0,1-1.2.48c-1,.06-1.26-.75-1.33-1.5a5.42,5.42,0,0,1,.05-1.2A6.19,6.19,0,0,0,144.94,155.93Z" style="fill:#263238"></path><path d="M143.6,157.92a2.15,2.15,0,0,1-1.2.48c-1,.06-1.26-.75-1.33-1.5A2.19,2.19,0,0,1,143.6,157.92Z" style="fill:#ff98b9"></path><path d="M125.83,156.2c2.87-.85-.87-8-.87-8s5.47-2.45,4.1-9.35c0,0,7.11.6,10.15-.9,4.76-2.34,5.72-6.12,5.09-9.31-.47-2.43-2.21-6.15-4.22-6.67s-4.5,3.65-4.5,3.65-13.25,3.42-16.42,7.12a8.41,8.41,0,0,0-1.74,5.75s-3.59-.43-3.69.24,2.88,1.2,2.88,1.2-2.74,1.92-2.28,2.69,2.81-1.52,2.81-1.52a6.5,6.5,0,0,0-.47,5C117.78,149.43,123.28,157,125.83,156.2Z" style="fill:#263238"></path><path d="M128.73,138.07c0-.06-.13,0-.1,0,1.55,3.78.69,7.87-2.72,10.28a.09.09,0,0,0,.1.15A7.46,7.46,0,0,0,128.73,138.07Z" style="fill:#263238"></path><path d="M124.44,148.8s0,.07,0,.07A0,0,0,1,0,124.44,148.8Z" style="fill:#263238"></path><path d="M138,125.45a51.52,51.52,0,0,0-16.14,4.16,8.18,8.18,0,0,0-4.63,9.52c0,.15.28.12.27,0-.32-2.7-.08-5.5,2-7.49,1.83-1.77,4.82-2.52,7.21-3.28a84.63,84.63,0,0,1,11.35-2.55C138.25,125.75,138.21,125.43,138,125.45Z" style="fill:#263238"></path><path d="M132.36,156.79a42.94,42.94,0,0,1-4.59-1.6,44.23,44.23,0,0,1-4.43-2,44.6,44.6,0,0,1,4.6,1.6A42.88,42.88,0,0,1,132.36,156.79Z" style="fill:#fff"></path><path d="M126.14,161l2.12,1.64c.71.54,1.42,1.09,2.14,1.61a37,37,0,0,0,4.5,2.89,16.06,16.06,0,0,1-4.77-2.52A24.49,24.49,0,0,1,126.14,161Z" style="fill:#fff"></path><path d="M131.88,156.59c.74-1.27,11.7-7.69,12-7.84a51.22,51.22,0,0,1,7.92.65c.53.27,2.65,9.6.93,12.53a36.2,36.2,0,0,1-4.58,6.07c-.22.13-8.47,2-13.72-.85C133.54,166.65,131,158.05,131.88,156.59Z" style="fill:#ebebeb"></path><path d="M148.38,162.73l-.15,5.21a.33.33,0,0,1-.06.06c-.22.13-8.47,2-13.72-.85-.91-.5-3.43-9.1-2.57-10.56.74-1.27,11.7-7.69,12-7.84h0l2.44,5.64Z" style="fill:#fff"></path><path d="M140.09,152.24a37.06,37.06,0,0,1,4.22-2.61,33.59,33.59,0,0,1,3.39,0l.2.67s-3-.08-3.29,0-4.22,2.48-4.22,2.48Z" style="fill:#dbdbdb"></path><rect x="132.67" y="157.61" width="1.62" height="0.42" transform="matrix(1, -0.01, 0.01, 1, -1.45, 1.24)" style="fill:#dbdbdb"></rect><rect x="134.56" y="165.63" width="1.62" height="0.42" transform="translate(-1.53 1.26) rotate(-0.53)" style="fill:#dbdbdb"></rect><path d="M145.68,168.07l0-.09.37-.06,0,.1Zm-.38.05-.37,0v-.09l.37,0Zm1.12-.16,0-.1.37-.06,0,.09Zm-1.86.24-.38,0v-.09l.38,0Zm-.75.06-.38,0v-.1l.37,0Zm3.35-.44,0-.09.36-.08,0,.09Zm-4.1.49h-.38v-.09l.37,0Zm4.83-.66,0-.09h0l.22-.22.07.06c-.12.13-.21.21-.24.24Zm-5.58.68h-.38v-.09h.38Zm-.75,0h-.38v-.1h.38Zm-.76,0-.37,0v-.1l.37,0Zm-.74-.05-.38,0v-.09l.37,0Zm8.38-1.14-.07-.06.25-.28.07.06Zm-9.13,1.06-.37,0V168l.37.06Zm-.74-.11-.37-.07,0-.09.36.07Zm10.37-1.52-.08-.06.24-.28.08.05Zm-11.11,1.37-.37-.08,0-.09.37.08Zm-.73-.18-.36-.11,0-.09.35.11ZM149.41,166l-.07-.06c.08-.09.15-.19.23-.29l.08.06Zm-13,1.55-.35-.13,0-.09.35.13Zm13.5-2.13-.07-.06.22-.3.08.06Zm-14.2,1.86-.35-.16,0-.08.34.15Zm-.69-.32-.18-.1a.75.75,0,0,1-.14-.12l.07-.06a.39.39,0,0,0,.11.09l.19.1Zm15.35-2.14-.08-.06.22-.3.08.06Zm-15.89,1.6c0-.09-.11-.2-.17-.33l.08,0,.17.33Zm16.33-2.21-.07,0,.21-.3.08.05Zm.44-.61-.08-.05.21-.31.08.05Zm-17.1,2.15a3.65,3.65,0,0,1-.14-.35l.08,0,.15.35Zm17.52-2.77-.08-.05.2-.32.08.05C151.77,162.73,151.7,162.83,151.64,162.94ZM133.84,165c0-.12-.09-.23-.13-.36l.09,0a3.62,3.62,0,0,0,.13.35Zm18.2-2.7-.08-.05c.07-.11.13-.22.2-.32l.08.05C152.17,162.09,152.11,162.2,152,162.31Zm-18.45,2-.12-.36.09,0c0,.12.07.24.11.36Zm18.83-2.64-.08,0,.15-.33.08,0A2.17,2.17,0,0,1,152.42,161.66Zm-19.07,1.93c0-.12-.07-.24-.11-.36l.09,0c0,.12.07.24.11.36ZM152.69,161l-.09,0q0-.16.09-.36l.09,0Zm-19.56,1.92c0-.12-.06-.24-.1-.36l.09,0c0,.12.07.24.11.36Zm19.72-2.66h-.1c0-.12,0-.25.05-.37h.1C152.88,160,152.87,160.09,152.85,160.21Zm-19.92,1.93-.09-.36.09,0,.09.36Zm20-2.68h-.09c0-.12,0-.24,0-.37h.1Zm-20.18,1.95-.09-.36.09,0,.09.36Zm20.22-2.7h-.09v-.37h.1C153,158.46,153,158.59,153,158.71Zm-20.39,2c0-.12-.06-.24-.08-.37h.09c0,.12,0,.24.08.36ZM153,158h-.09c0-.12,0-.25,0-.37H153C153,157.71,153,157.83,153,158Zm-20.54,2c0-.13-.05-.25-.07-.37l.09,0c0,.12,0,.24.07.37Zm20.51-2.74h-.09l0-.37h.1C152.93,157,152.94,157.08,152.94,157.21Zm-20.64,2c0-.12,0-.24-.05-.36v0h.1v0c0,.12,0,.23,0,.35Zm20.59-2.75h-.1l0-.38h.09C152.87,156.21,152.88,156.33,152.89,156.46Zm-20.6,2h-.09l0-.38h.09Zm20.52-2.74h-.09c0-.12,0-.25,0-.37h.09C152.79,155.46,152.8,155.59,152.81,155.71Zm-20.56,2h-.09a2.31,2.31,0,0,1,0-.38h.09C132.25,157.45,132.25,157.57,132.25,157.71ZM152.63,155c0-.12,0-.25,0-.37h.09c0,.12,0,.24.05.37Zm-20.32,2-.09,0a1,1,0,0,1,.11-.28,1.39,1.39,0,0,1,.25-.29l.06.07a1.5,1.5,0,0,0-.23.27A1.18,1.18,0,0,0,132.31,157Zm20.21-2.73-.06-.37.09,0,.06.37Zm-19.6,2-.06-.07.3-.24.06.07Zm19.47-2.7-.06-.37h.09c0,.12,0,.24.07.36Zm-18.88,2.24,0-.08.3-.22.06.07Zm.61-.44-.05-.08.31-.21.05.07Zm18.13-2.53c0-.13-.05-.25-.07-.37l.09,0c0,.12,0,.24.08.37Zm-17.51,2.1-.05-.08.31-.21.05.08Zm.62-.42-.05-.07.32-.21.05.08ZM152.1,152l-.09-.36.09,0c0,.11.06.24.09.36ZM136,154l-.05-.08.32-.2.05.08Zm.63-.4-.05-.08.32-.21.05.08Zm15.3-2.33c0-.13-.07-.25-.1-.36l.09,0c0,.11.06.24.1.36Zm-14.66,1.92,0-.08.31-.2,0,.08Zm.63-.4,0-.07.32-.2.05.08Zm.64-.39-.05-.08.32-.2,0,.08Zm13.18-1.85c0-.14-.09-.25-.12-.35l.08,0c0,.1.08.22.13.36Zm-12.54,1.46,0-.08.32-.2.05.08Zm.64-.4-.05-.08.32-.19,0,.08Zm11.62-1.74,0,0a1.41,1.41,0,0,0-.27-.07v-.09a.87.87,0,0,1,.3.08.12.12,0,0,1,.07.07Zm-11,1.36,0-.08.32-.2.05.08Zm10.3-1.53-.37-.05v-.1l.37,0Zm-9.66,1.14,0-.08.32-.19,0,.08Zm8.91-1.24-.37,0v-.09l.37,0Zm-.74-.08-.38,0v-.1l.38,0Zm-7.52.93-.05-.08.32-.19.05.08Zm6.77-1-.37,0v-.09l.38,0Zm-.75-.06-.37,0v-.09l.38,0Zm-5.37.68,0-.08.32-.19.05.08Zm4.62-.74-.37,0v-.1l.38,0Zm-.75-.05-.37,0v-.09l.38,0Zm-3.23.41,0-.08.32-.19.05.08Zm2.48-.45-.37,0v-.09l.38,0Zm-.75,0h-.37v-.09h.38Zm-1.07.11-.05-.08.19-.1.18,0v.1h-.15Z" style="fill:#dbdbdb"></path><path d="M145.55,168.29l-.37.05v-.09l.37-.05Zm.37,0v-.09l.37-.06,0,.1Zm-1.11.14-.38,0v-.1l.38,0Zm1.86-.26,0-.09L147,168l0,.09Zm-2.61.33-.38,0v-.1l.37,0Zm3.34-.47v-.09l.36-.08,0,.09Zm-4.09.52h-.38v-.09l.37,0Zm-.75,0h-.38v-.09h.38Zm5.57-.78-.06-.07.26-.26.07.06Zm-6.32.78h-.38v-.1h.38Zm-.75,0-.38,0v-.09h.37Zm-.75,0-.38,0v-.1l.37,0Zm-.75-.07-.37,0v-.09l.37,0Zm9.09-1.21-.07-.06c.07-.09.16-.18.24-.29l.07.06A3.7,3.7,0,0,1,148.65,167.2Zm-9.83,1.11-.38-.06,0-.09.37.06Zm-.75-.13-.36-.08,0-.09.36.08Zm11.07-1.55-.07-.06.23-.29.08.06ZM137.34,168l-.36-.1,0-.09.36.1Zm-.72-.21-.36-.11,0-.09.35.12Zm13-1.76-.07-.06a3.4,3.4,0,0,0,.23-.3l.08.06Zm-13.71,1.52-.35-.14,0-.09.35.14Zm14.18-2.11-.07-.06.22-.3.08.06Zm-14.87,1.82-.34-.17,0-.08.34.16Zm15.32-2.42-.07-.06c.07-.09.15-.19.22-.3l.08.06Zm-16,2a1.24,1.24,0,0,1-.23-.31l.08,0a2.22,2.22,0,0,0,.21.29ZM151,164.26l-.08-.06.22-.3.08,0C151.13,164.05,151.05,164.15,151,164.26Zm-16.85,2c0-.1-.11-.22-.16-.34l.08,0,.16.34Zm17.28-2.63-.07,0,.21-.31.07.05A3.37,3.37,0,0,1,151.41,163.64Zm-17.59,1.94c0-.11-.09-.23-.14-.35l.09,0a3.65,3.65,0,0,0,.14.35Zm18-2.56-.08-.05.21-.32.08,0Zm-18.28,1.86c0-.12-.08-.23-.13-.35l.09,0,.13.36Zm18.69-2.49-.08,0,.19-.32.08,0Zm.38-.65-.08,0,.15-.34.09,0A2.84,2.84,0,0,1,152.62,161.74Zm-19.32,2.43c0-.12-.07-.24-.11-.36l.09,0c0,.12.07.24.11.36ZM152.89,161l-.09,0c0-.12.07-.24.1-.36l.09,0C153,160.79,152.93,160.91,152.89,161Zm-19.81,2.42c0-.12-.08-.24-.11-.36l.09,0c0,.12.07.24.11.36Zm20-3.15-.1,0,.06-.37h.09C153.09,160.05,153.08,160.17,153.06,160.3Zm-20.2,2.43c0-.12-.06-.24-.1-.36l.09,0c0,.12.07.24.1.36Zm20.29-3.18h-.09c0-.12,0-.25,0-.37h.09C153.17,159.3,153.16,159.42,153.15,159.55ZM132.67,162c0-.12-.07-.24-.1-.37l.09,0c0,.12.07.24.1.36Zm20.52-3.21h-.09v-.37h.1C153.2,158.55,153.19,158.67,153.19,158.8Zm-20.71,2.48c0-.12,0-.25-.08-.37l.09,0,.09.37Zm20.71-3.23h-.09c0-.13,0-.25,0-.38h.09C153.19,157.8,153.19,157.92,153.19,158.05Zm-20.87,2.5c0-.13,0-.25-.08-.37l.09,0c0,.12,0,.24.08.37Zm20.85-3.26h-.09l0-.37h.1C153.16,157,153.16,157.17,153.17,157.29Zm-21,2.52-.06-.37.09,0,.06.37Zm21-3.27H153c0-.12,0-.25,0-.37h.1Zm-21.07,2.53,0-.22,0-.16h.09l0,.16,0,.21Zm21-3.27H153c0-.13,0-.25-.05-.38h.1C153,155.55,153,155.67,153.05,155.8Zm-21,2.51H132l0-.38h.1C132,158.06,132,158.18,132.05,158.31ZM153,155.05h-.09v0c0-.12,0-.23,0-.35h.09c0,.11,0,.23.05.34ZM132,157.57h-.09c0-.14,0-.27,0-.38H132C132,157.31,132,157.43,132,157.57Zm20.74-3.25-.06-.37h.1c0,.12,0,.24,0,.37Zm-20.65,2.52-.09,0a1.08,1.08,0,0,1,.08-.19,2.34,2.34,0,0,1,.25-.29l.07.07a1.65,1.65,0,0,0-.24.27C132.16,156.72,132.13,156.78,132.11,156.84Zm20.53-3.26c0-.12,0-.24-.07-.37h.1l.06.37Zm-19.94,2.57-.06-.07a3.7,3.7,0,0,1,.29-.24l.06.07C132.88,156,132.78,156.07,132.7,156.15Zm.59-.46-.06-.08.3-.22.06.07C133.48,155.54,133.38,155.61,133.29,155.69Zm19.21-2.84c0-.13,0-.25-.07-.37l.09,0c0,.12,0,.24.08.37Zm-18.61,2.4,0-.08.31-.22,0,.08Zm.62-.43,0-.08.31-.21,0,.08Zm.62-.42,0-.08.32-.2,0,.07Zm17.22-2.29c0-.12,0-.24-.08-.36l.09,0c0,.12,0,.24.08.36ZM135.76,154l0-.08.32-.2.05.08Zm.63-.41,0-.08.32-.2.05.08Zm15.79-2.19-.09-.37.09,0,.09.36ZM137,153.18l-.05-.08.31-.2.05.08Zm.63-.4,0-.08.32-.2,0,.08ZM152,150.66a2.42,2.42,0,0,0-.11-.35l.09,0a3.07,3.07,0,0,1,.11.36Zm-13.68,1.72-.05-.08.32-.19.05.08Zm.64-.39-.05-.08.32-.2,0,.08Zm.64-.39-.05-.08.32-.2.05.08ZM151.74,150a.8.8,0,0,0-.16-.29l0-.08h0s.1.08.21.33Zm-11.52,1.25-.05-.08.32-.2,0,.08Zm11-1.63-.37-.05v-.1l.38.06Zm-10.36,1.24-.05-.08.33-.19,0,.08Zm9.62-1.34-.38,0v-.09l.38,0Zm-.75-.09-.37,0v-.1l.37,0Zm-8.22,1.05,0-.08.32-.2.05.08Zm7.47-1.12-.37,0v-.1l.37,0Zm-.74-.07-.38,0v-.09l.37,0Zm-6.09.8-.05-.08.33-.19,0,.08Zm5.34-.85-.38,0v-.1l.37,0Zm-4.69.47-.05-.08.33-.19,0,.08Zm3.94-.53-.38,0V149l.37,0Zm-.75,0-.38,0V149l.37,0Zm-2.54.2,0-.08.33-.19.05.09Zm1.79-.24h-.38v-.1l.37,0Zm-.75,0h-.38v-.09h.38Z" style="fill:#dbdbdb"></path><rect x="134.78" y="157.69" width="0.37" height="0.19" transform="translate(-11.52 10.63) rotate(-4.33)" style="fill:#dbdbdb"></rect><path d="M145.33,156.9l-.62.08,0-.18.62-.08.11,0,0,.19Zm-1.36.17-.73.08,0-.19.73-.08Zm-1.46.15-.74.08,0-.19.74-.07Zm-1.47.15-.74.07,0-.19.74-.07Zm-1.47.13-.74.07v-.19l.73-.06Zm-1.47.13-.74.06v-.19l.73-.06Zm-1.47.12-.74.06v-.19l.73-.06Z" style="fill:#dbdbdb"></path><path d="M146.17,156.78l0-.18.37-.06,0,.18Z" style="fill:#dbdbdb"></path><polygon points="136.91 165.79 136.54 165.81 136.53 165.63 136.9 165.6 136.91 165.79" style="fill:#dbdbdb"></polygon><path d="M146.26,164.89l-.62.08,0-.18.66-.09h.13l0,.18-.13,0Zm-1.41.18-.79.08,0-.18.79-.09Zm-1.59.16-.79.08,0-.19.79-.07Zm-1.58.16-.8.07v-.19l.79-.07Zm-1.59.14-.79.07,0-.19.79-.07Zm-1.59.13-.79.07,0-.19.8-.07Z" style="fill:#dbdbdb"></path><path d="M147.22,164.76l0-.19.37-.06,0,.19Z" style="fill:#dbdbdb"></path><path d="M147.31,156.45l-.09-.16.65-.37.1.16Zm1.31-.74-.09-.16.65-.37.09.16Zm1.3-.76-.1-.16.64-.38.1.15C150.35,154.7,150.13,154.83,149.92,155Zm1.28-.79-.1-.15c.22-.14.43-.28.62-.42l.11.16Zm1.24-.86-.12-.14.22-.18.13.14Z" style="fill:#dbdbdb"></path><path d="M148.48,164.41l-.11-.15.6-.45.11.15Zm1.19-.92-.11-.14.59-.47.11.15Zm1.17-.94-.11-.14.57-.49.12.14Zm1.15-1-.13-.14.54-.51.14.13Zm1.07-1.07-.14-.12.11-.13.14.12Z" style="fill:#dbdbdb"></path><path d="M143.9,148.75c.46.94.9,1.89,1.34,2.84s.88,1.89,1.3,2.85h0l.49,2c.17.67.34,1.34.5,2l.93,4.05v0c-.09,1.8-.18,3.61-.31,5.41,0-1.81,0-3.61,0-5.42v0l-1-4c-.17-.68-.32-1.35-.48-2l-.47-2v0c-.41-1-.79-1.94-1.19-2.9S144.27,149.73,143.9,148.75Z" style="fill:#c7c7c7"></path><path d="M136.39,164.77l-.06-.78s0-.07.06-.08h0l.42,0a.06.06,0,0,1,.08.06.08.08,0,0,1-.07.08l-.35,0,0,.24.3,0a.07.07,0,0,1,0,.14l-.31,0,0,.31a.08.08,0,0,1-.07.08S136.4,164.81,136.39,164.77Z" style="fill:#dbdbdb"></path><path d="M137.19,164.7l-.07-.78a.08.08,0,0,1,.07-.08h0l.43,0a.06.06,0,0,1,.07.06.06.06,0,0,1-.06.08l-.36,0,0,.24.31,0s.07,0,.08.06a.08.08,0,0,1-.07.08l-.3,0,0,.31a.07.07,0,1,1-.14,0Z" style="fill:#dbdbdb"></path><path d="M138.26,164.32h-.16l0,.29a.08.08,0,0,1-.07.07s-.07,0-.08-.06l-.07-.78a.07.07,0,0,1,.07-.07h0l.24,0a.29.29,0,0,1,.3.26A.28.28,0,0,1,138.26,164.32Zm-.17-.14h.16a.14.14,0,0,0,.13-.14.14.14,0,0,0-.15-.13h-.16Z" style="fill:#dbdbdb"></path><path d="M139.29,164.51a.07.07,0,0,1-.07.08l-.46,0h0s0,0-.06,0a.07.07,0,0,1,0-.1l.35-.38a.18.18,0,0,0,0-.13.19.19,0,0,0-.19-.16.16.16,0,0,0-.11,0l0,0a.08.08,0,0,1-.11,0,.07.07,0,0,1,0-.1l0-.05a.27.27,0,0,1,.2-.09.3.3,0,0,1,.24.08.28.28,0,0,1,.1.2.33.33,0,0,1-.08.25l-.23.24.28,0A.06.06,0,0,1,139.29,164.51Z" style="fill:#dbdbdb"></path><path d="M127.14,154.89s-4.79-4.62-7-2.81,2.17,9,5.23,9.52a3,3,0,0,0,3.59-2.32Z" style="fill:#d3766a"></path><path d="M121.47,154.12s0,.07,0,.08c2.16.42,3.58,2.06,4.69,3.84a1.63,1.63,0,0,0-2.48,0c-.05.05,0,.12.07.1a1.81,1.81,0,0,1,2.09.24,8.8,8.8,0,0,1,1.25,1.4c.13.16.43,0,.33-.19l0-.05C126.94,157,124.26,153.84,121.47,154.12Z" style="fill:#263238"></path><path d="M142.93,174l-3,10.14L126.63,173l-3,4.31s13.8,18.42,13.79,17.52l3.18-8.8,6.38,5.27L145,176.69Z" style="fill:#ebebeb"></path><path d="M146.41,184c-.4-2.41-.74-4.84-1.25-7.22,0-.09-.16-.11-.17,0-.25,2.39,1.33,11.58,1.54,13.8l0,0c-.26-.23-5.89-4.61-5.93-4.52-.74,1.42-3.08,7.83-3.22,8.41-2.19-2.93-10.5-13.53-13-16.25-.08-.08-.2,0-.14.1,2,3.12,13,17.41,13.15,17.36a96,96,0,0,0,3.32-9.31c1,1,6.71,6,6.69,5.62A75.94,75.94,0,0,0,146.41,184Z" style="fill:#263238"></path><path d="M146.89,210.74s-4.17-5.51-.19-8.05,7.22,3.56,7.22,3.56Z" style="fill:#455a64"></path><path d="M179.91,247h0l.58,6.74.21,2.22-1.95-1.1-5.87-3.37h0l-26.13-41,7-4.48,26.13,41Z" style="fill:#455a64"></path><polygon points="180.5 253.73 180.69 255.95 178.75 254.84 180.5 253.73" style="fill:#263238"></polygon><rect x="145.77" y="207.89" width="9.73" height="1.93" transform="translate(-88.68 113.79) rotate(-32.53)" style="fill:#263238"></rect><rect x="146.92" y="209.69" width="9.73" height="1.93" transform="translate(-89.48 114.7) rotate(-32.54)" style="fill:#263238"></rect><polygon points="148.2 214.09 150.85 212.4 158.85 228.15 157.83 228.72 148.2 214.09" style="fill:#263238"></polygon><path d="M132.71,221c4.08-.24,11.42,35.41,5.44,36C111.5,259.85,91,252.88,86.3,249.8c-6.11-4.05-5.49-12.54-2.21-16C89.76,227.7,126.38,221.33,132.71,221Z" style="fill:#d3766a"></path><path d="M182.43,226c-.61,3.91-10.12,1.6-10.12,1.6a7.29,7.29,0,0,1,2.3,4.4c.27,3-4.32,4.73-4.32,4.73a9,9,0,0,1,1.7,5c0,2.89-4.41,5.3-4.41,5.3a7.9,7.9,0,0,1-1.3,5.36c-3,4.08-30.28,4.65-33.69,4.79L131,221.53s22.61-8.94,28.33-7.75C164.16,214.79,183.36,220,182.43,226Z" style="fill:#d3766a"></path><path d="M172.24,227.48C167.37,225.17,162,224,156.73,223a.09.09,0,0,0,0,.18c5.22,1,10.3,3.36,15.47,4.54A.13.13,0,0,0,172.24,227.48Z" style="fill:#263238"></path><path d="M170.22,236.31a13.8,13.8,0,0,0-3.59-.78c-1.29-.19-2.58-.36-3.87-.5q-3.88-.45-7.79-.69c-.12,0-.15.17,0,.18,2.58.3,5.15.64,7.72,1,1.28.2,2.56.42,3.84.64a16.66,16.66,0,0,0,3.65.46A.19.19,0,0,0,170.22,236.31Z" style="fill:#263238"></path><path d="M167.47,247a10,10,0,0,0-3.27-.53c-1.18-.11-2.37-.22-3.55-.35-2.36-.24-4.72-.49-7.07-.81a.09.09,0,0,0,0,.18c2.39.34,4.77.72,7.17,1l3.52.46a9.25,9.25,0,0,0,3.23.13C167.52,247.15,167.51,247.06,167.47,247Z" style="fill:#263238"></path><path d="M128.73,220.86,135,260.75S92.65,257,84.55,249.16c-5.64-5.42-3.93-13.93-.69-16.49C90.94,227.08,128.73,220.86,128.73,220.86Z" style="fill:#FF725E"></path><path d="M124.09,257.73c-1.08-5.58-4.65-28.55-5.08-33.57,0-.35.18-.45.26-.09,3.63,16.63,4.26,28.09,5,33.61C124.33,257.82,124.12,257.87,124.09,257.73Z" style="fill:#263238"></path><path d="M128.79,220.47a268.69,268.69,0,0,0-29.06,6l-.75.24c-1.8.18-3.58.54-5.35.86,0,0,0,.09,0,.08,1.42-.26,2.84-.42,4.27-.6-.82.27-1.63.54-2.43.82-1.43.51-2.83,1.07-4.25,1.59a0,0,0,1,0,0,.07c2.38-.85,4.82-1.54,7.25-2.27s30.07-6.37,30.19-6.37a1.55,1.55,0,0,1,.1.35c0,.11.14.13.13,0A3,3,0,0,0,128.79,220.47Z" style="fill:#263238"></path><path d="M129.1,260.11c-1.21-.26-5.74-.66-6.94-.83-2.43-.34-4.86-.65-7.28-1-4.86-.81-9.67-1.84-14.46-3l-4-1c-1.38-.35-5.86-1.86-7.21-2.3,0,0-.08.06,0,.07a59.42,59.42,0,0,0,6.58,2.4c1.19.32,2.36.72,3.55,1.06,2.38.68,4.79,1.26,7.2,1.8,4.83,1.08,9.72,1.88,14.63,2.48,1.38.17,6.56.67,7.93.59C129.26,260.37,129.23,260.14,129.1,260.11Z" style="fill:#263238"></path></g><g id="freepik--Plant--inject-18"><path d="M309.7,333.74c3.19-3.13,7.32-6.91,12.2-5.56,4.6,1.27,6.36,6.29,7.18,10.47,1.06,5.38,1.89,10.82,2.74,16.24s1.68,11,2.47,16.45q.66,4.65,1.31,9.29c.22,1.55.44,3.1.65,4.65s.47,3,.55,4.57c0,.49-.74.56-.85.1-.59-2.59-.83-5.27-1.21-7.9s-.77-5.27-1.15-7.91q-1.15-7.86-2.35-15.71t-2.44-15.7c-.71-4.44-1.05-10-5-12.87a7.56,7.56,0,0,0-7.35-.69,21.83,21.83,0,0,0-6.68,4.67A.07.07,0,1,1,309.7,333.74Z" style="fill:#263238"></path><path d="M314.07,330.54s6.53-2.35,9.75,2.42-.63,16.89-30.36,23.73a84,84,0,0,1,7.15-26.88C307,315.91,318.34,321.17,314.07,330.54Z" style="fill:#FF725E"></path><path d="M295.17,354.7a22.35,22.35,0,0,1,1.49-2.41c.5-.76,1-1.53,1.51-2.29.38-.57.77-1.13,1.16-1.7,0-.14,0-.28-.05-.42s-.07-.52-.1-.78l-.24-1.67c-.08-.55-.18-1.1-.28-1.65a9.36,9.36,0,0,0-.39-1.76c0-.08.12-.13.13,0a6.78,6.78,0,0,0,.27,1c.06.25.13.5.19.75.15.57.29,1.13.41,1.7s.22,1.05.31,1.58c0,.25.08.51.11.76.53-.75,1.07-1.5,1.63-2.24,1.58-2.08,3.25-4.08,5-6,0,0,0,0,0-.06a53.6,53.6,0,0,0-.77-9.29c0-.08.11-.13.13,0a31.79,31.79,0,0,1,1.11,8.89c.62-.7,1.25-1.38,1.88-2.07,1.45-1.55,2.92-3.09,4.43-4.59.06-.06.16,0,.1.1-2.51,2.69-4.89,5.5-7.21,8.36a52,52,0,0,1,5.44.2c2,.15,4,.41,6,.69.09,0,.06.14,0,.13a55.39,55.39,0,0,0-6-.54c-1.94-.08-3.87,0-5.8,0q-1.89,2.33-3.72,4.7h.28c.45,0,.91,0,1.37,0,.9,0,1.81.08,2.71.16a40.85,40.85,0,0,1,5.49.82.07.07,0,0,1,0,.13c-1.83-.2-3.66-.38-5.5-.44-.87,0-1.75,0-2.63,0-.45,0-.91,0-1.36,0a1.53,1.53,0,0,1-.75-.07l-2.4,3.12q-.94,1.25-1.86,2.52c-.63.86-1.19,1.8-1.89,2.61C295.22,354.84,295.13,354.77,295.17,354.7Z" style="fill:#263238"></path><path d="M311.22,337.3a19.94,19.94,0,0,1,3.18-.16c1.07,0,2.13,0,3.19.07a.07.07,0,1,1,0,.13c-1.08-.07-2.15-.09-3.23-.08s-2.08.12-3.12.09C311.19,337.35,311.19,337.3,311.22,337.3Z" style="fill:#263238"></path><path d="M301.89,339.69c-.12-1-.25-2-.46-3a.07.07,0,1,1,.13,0c.15,1,.34,2,.49,3,.07.5.14,1,.2,1.51a6.76,6.76,0,0,1,.13,1.42c0,.08-.16.09-.18,0a8.34,8.34,0,0,1-.15-1.42C302,340.66,302,340.18,301.89,339.69Z" style="fill:#263238"></path><path d="M303.85,328.44c.26,1,.52,2,.7,3q.13.76.24,1.53a7,7,0,0,1,.1,1.51,0,0,0,0,1-.08,0,9.93,9.93,0,0,1-.24-1.43c-.06-.49-.14-1-.22-1.48-.18-1-.37-2.06-.63-3.08C303.7,328.4,303.82,328.36,303.85,328.44Z" style="fill:#263238"></path><path d="M342.57,388.75c.16-1.87.35-3.74.54-5.61.39-3.7.85-7.4,1.34-11.09s1-7.37,1.56-11a26.93,26.93,0,0,1,1.14-5,4.77,4.77,0,0,1,2.77-3.13c3.5-1.21,5.86,2.42,7.27,5,.05.07-.07.13-.11.06-.85-1.21-3.19-4.63-5.84-4.47-1.79.11-3.22,1.37-4.07,5.83-2.14,11.09-4.06,33.61-4.29,35.08-.12.78-.67.75-.67-.09C342.19,392.43,342.41,390.59,342.57,388.75Z" style="fill:#263238"></path><path d="M356.25,356.48s-3.06-10.8,3.7-5.4c11.26,9,11.66,28.54,11.66,28.54s-20-11.62-22.5-19.29C345.41,348.92,356.25,356.48,356.25,356.48Z" style="fill:#FF725E"></path><path d="M352.46,361.78c1.57.32,3.17.52,4.75.75l2.25.32L361,363c-1.49-2-3-4.1-4.42-6.19-.05-.08.07-.17.14-.1a47.66,47.66,0,0,1,3.34,3.86c.29-.84.59-1.67.88-2.51s.71-1.93,1-2.92a.06.06,0,1,1,.12,0c-.27,1-.46,2-.73,3s-.54,1.9-.88,2.83c.73,1,1.43,1.93,2.12,2.91.34-1,.77-1.92,1.07-2.91,0-.08.15,0,.13,0-.36,1.1-.55,2.24-.89,3.34.46.67.92,1.34,1.36,2q1.2,1.88,2.31,3.8a.3.3,0,0,1,.18.3c1.26,2.19,2.46,4.4,3.65,6.64a.07.07,0,0,1-.12.07c-1.19-2.21-2.51-4.37-3.88-6.48h0a3.12,3.12,0,0,0-.65-.13l-.69-.15c-.52-.11-1-.24-1.55-.37-1-.25-2-.49-3-.67a.07.07,0,0,1,0-.13c1.22.23,2.43.37,3.65.51.58.07,1.16.14,1.73.23l.09,0c-.72-1.1-1.45-2.18-2.19-3.26s-1.47-2.09-2.23-3.13c-.69-.1-1.38-.28-2.06-.41l-2.33-.45c-1.55-.31-3.09-.66-4.64-.91A.07.07,0,0,1,352.46,361.78Z" style="fill:#263238"></path><path d="M364.49,362.84l.27-.86a17.75,17.75,0,0,0,.46-1.81c0-.08.14,0,.12,0-.13.61-.27,1.22-.41,1.83a12.61,12.61,0,0,1-.52,1.79.12.12,0,0,1-.23-.07C364.26,363.45,364.39,363.15,364.49,362.84Z" style="fill:#263238"></path><path d="M350.42,359.28c.91.13,1.83.2,2.75.28s1.83.21,2.75.35a0,0,0,0,1,0,.08c-.93-.07-1.84-.14-2.76-.26s-1.82-.25-2.75-.32C350.33,359.41,350.33,359.27,350.42,359.28Z" style="fill:#263238"></path><path d="M327.85,375.08c.35-7.95.86-15.88,1.66-23.8.39-3.95.84-7.89,1.4-11.81A83.73,83.73,0,0,1,333.18,328,22,22,0,0,1,337,320a8.65,8.65,0,0,1,7.68-3.36c3.48.43,6.29,2.63,8.71,5,2.72,2.67,5.21,5.59,7.73,8.45l1.89,2.18c.06.06,0,.16-.1.09-2.46-2.83-5-5.58-7.69-8.2-2.48-2.43-5-5.08-8.45-6.09a8.73,8.73,0,0,0-4.91-.11,7.71,7.71,0,0,0-3.35,2.12,17.56,17.56,0,0,0-3.78,7.35c-2.14,7.31-2.91,15-3.7,22.52s-1.35,15.36-1.74,23.05-.69,15.49-1.43,23.21c-.09.95-.22,1.9-.34,2.85-.08.64-1.07.64-1,0C327.12,391.05,327.49,383.07,327.85,375.08Z" style="fill:#263238"></path><path d="M353.82,322.49s-4.54-8.4.82-11.1S378,328.74,383.21,358c0,0-29-12.83-38.85-25.61S345.68,316.83,353.82,322.49Z" style="fill:#FF725E"></path><path d="M349.55,329.32c3.26,0,6.51-.24,9.77-.22l-1.83-2.1a28.64,28.64,0,0,1-2.55-3c-.05-.07.05-.16.12-.11a23.9,23.9,0,0,1,2.46,2.47c.82.87,1.63,1.74,2.44,2.62,1.25,1.34,2.47,2.71,3.68,4.09,0-.14,0-.27,0-.4V331c0-1.11,0-2.21,0-3.32,0-2.24,0-4.49-.17-6.73,0-.08.13-.08.13,0,.16,2.24.39,4.48.5,6.73.06,1.11.08,2.21.1,3.32,0,.57,0,1.14,0,1.71,0,.31,0,.64,0,1,.19.22.39.43.58.64,2.6,3,5.07,6.05,7.48,9.18,0-.18,0-.35,0-.52l.12-1c.08-.74.19-1.49.3-2.23s.21-1.4.33-2.1.32-1.57.38-2.37a.07.07,0,1,1,.13,0,23.41,23.41,0,0,0-.27,2.38c-.07.72-.13,1.44-.2,2.15s-.13,1.44-.2,2.16c0,.34-.07.69-.1,1,0,.17,0,.34-.07.52a1,1,0,0,1-.14.41c.42.54.83,1.07,1.24,1.62,1.65,2.17,3.26,4.37,4.88,6.57,0,.07-.05.16-.1.09q-2.3-3-4.7-5.89c-1.19.05-2.41,0-3.6-.05s-2.52,0-3.77,0a.07.07,0,1,1,0-.13l3.77.05c1.15,0,2.32-.06,3.47,0-1.41-1.71-2.82-3.4-4.24-5.09l-1.56-1.85a7.11,7.11,0,0,1-1.46.05h-1.71c-1.07,0-2.14,0-3.22-.05-2.21,0-4.42-.1-6.64-.11-.08,0-.08-.13,0-.13,2.21,0,4.43-.13,6.64-.18l3.22-.08,1.72,0c.32,0,.66,0,1,0-1.22-1.45-2.43-2.89-3.66-4.33a.12.12,0,0,1-.06-.08q-1.78-2.1-3.58-4.19l-.5-.57c-3.38.1-6.75-.12-10.13-.05C349.46,329.46,349.47,329.32,349.55,329.32Z" style="fill:#263238"></path><path d="M351.22,335.09H352c.08,0,.07.12,0,.12h-.79C351.13,335.22,351.13,335.08,351.22,335.09Z" style="fill:#263238"></path><path d="M353,335.09l3.13-.06,1.56,0a5.49,5.49,0,0,1,1.46,0c.05,0,0,.08,0,.09a5.47,5.47,0,0,1-1.46.11l-1.57,0H353C352.89,335.23,352.89,335.1,353,335.09Z" style="fill:#263238"></path><path d="M362.09,344.88a43.14,43.14,0,0,1,6.41-.58s0,.05,0,.05c-2.13.2-4.26.32-6.38.66C362,345,362,344.89,362.09,344.88Z" style="fill:#263238"></path><path d="M370.81,335.55c0-.19,0-.37.07-.56.05-.42.12-.84.18-1.25.13-.8.27-1.59.42-2.39,0-.07.14-.05.13,0q-.15,1.22-.27,2.46c0,.4-.06.8-.1,1.21a3.44,3.44,0,0,1-.16,1.15c-.06.12-.25.07-.28-.05A1.52,1.52,0,0,1,370.81,335.55Z" style="fill:#263238"></path><path d="M328.13,311.7c1-1.93,2.36-4.49,4.95-4.32,2.14.13,3.11,2.31,3.56,4.12,1.42,5.58,1.52,11.46,1.79,17.18.58,12.09,1.11,24.19,1.18,36.29,0,3.36,0,6.71,0,10.07s0,6.86-.24,10.27a.25.25,0,0,1-.5,0c0-2.93.08-5.85.09-8.78s0-5.71-.05-8.57q-.15-8.67-.47-17.35c-.21-5.74-.46-11.49-.71-17.23q-.18-4.31-.37-8.61c-.12-2.78-.24-5.57-.56-8.34-.18-1.54-.41-3.09-.73-4.62a6.37,6.37,0,0,0-1.34-3.1,2.94,2.94,0,0,0-3.78-.28,8,8,0,0,0-2.68,3.35C328.21,311.85,328.09,311.77,328.13,311.7Z" style="fill:#263238"></path><path d="M328.84,310.78s2.13-7.53-2.58-3.76c-7.84,6.26-8.12,19.87-8.12,19.87s13.93-8.09,15.67-13.43C336.39,305.51,328.84,310.78,328.84,310.78Z" style="fill:#FF725E"></path><path d="M321.07,321.31c.13-.21.27-.41.4-.61a3.53,3.53,0,0,1,0-.65c0-.32,0-.64,0-1,0-.63,0-1.27-.07-1.9a.07.07,0,0,1,.14,0c0,.62.06,1.25.07,1.87,0,.31,0,.62,0,.94,0,.12,0,.26,0,.4.55-.85,1.11-1.69,1.69-2.52l.52-.71a14.42,14.42,0,0,0,0-2.46c0-.87,0-1.74-.05-2.62,0-.08.13-.08.13,0,0,.91.07,1.81.12,2.72a18.14,18.14,0,0,1,.05,1.95c1.35-1.83,2.78-3.6,4.22-5.35.05-.06.15,0,.11.08-.9,1.13-1.76,2.3-2.6,3.47,1.64-.38,3.31-.6,5-.84.09,0,.12.12,0,.13-1.77.27-3.5.71-5.24,1.09,0,0,0,0,0,0-.67.94-1.33,1.88-2,2.83-.26.38-.52.78-.79,1.16h.08l.54-.07c.39-.05.77-.08,1.16-.11.8-.06,1.61-.1,2.41-.15a.07.07,0,0,1,0,.14c-.79,0-1.58.08-2.37.16l-1.25.15-.54.07-.16,0-1.34,2c-.79,1.17-1.49,2.41-2.33,3.54a.07.07,0,0,1-.11-.07A37.1,37.1,0,0,1,321.07,321.31Z" style="fill:#263238"></path><path d="M324.54,312.82c0-.3,0-.59,0-.88a14.32,14.32,0,0,0-.08-1.85c0-.09.13-.11.13,0,0,.61.07,1.22.1,1.83,0,.3,0,.61,0,.91,0,.14,0,.28,0,.42a1.31,1.31,0,0,1,0,.44.06.06,0,0,1-.11,0,1.12,1.12,0,0,1,0-.41Z" style="fill:#263238"></path><path d="M326.26,315.93c.52-.09,1.05-.11,1.58-.16s1.14-.1,1.72-.17a.07.07,0,1,1,0,.13c-1.1.07-2.19.27-3.29.31C326.22,316,326.2,315.94,326.26,315.93Z" style="fill:#263238"></path><path d="M321.89,316s0,.22,0,.29v.24c0,.17,0,.35,0,.53v.52a1,1,0,0,1,0,.46,0,0,0,0,1-.05,0,.53.53,0,0,1,0-.22V317c0-.17,0-.35,0-.52v-.25a.71.71,0,0,0,0-.29C321.68,315.85,322,315.85,321.89,316Z" style="fill:#263238"></path><path d="M327.81,351.83c2.93-2.2,5.56-5.36,9.5-5.51,3.26-.13,5.54,2.32,6.84,5.05a28.2,28.2,0,0,1,1.6,4.49c.58,2.06,1.14,4.13,1.66,6.2,1,4.09,1.9,8.21,2.61,12.37.39,2.31.76,4.63,1.05,7a59.08,59.08,0,0,1,.69,7.14.37.37,0,0,1-.73.08c-.4-1.95-.56-4-.85-5.93s-.59-4-.92-5.94c-.67-3.94-1.45-7.88-2.34-11.78-.84-3.69-1.66-7.43-2.85-11-.86-2.57-2.22-5.58-5-6.5-4.23-1.41-8.07,2.17-11.17,4.49C327.83,352,327.74,351.89,327.81,351.83Z" style="fill:#263238"></path><path d="M330.84,349.73s2.7-7.71-1.2-9.23c-5.86-2.26-21.18,15-18.18,41.45A151,151,0,0,0,332,368.08c8.74-7.33,11-16.92,7.13-19.4S330.84,349.73,330.84,349.73Z" style="fill:#FF725E"></path><path d="M313.23,376.28a20.11,20.11,0,0,1,1.42-2.67c.5-.9,1-1.81,1.53-2.7,1-1.74,2-3.49,3.07-5.21l.51-.84-.06-.31-.18-.76c-.13-.58-.23-1.16-.33-1.73-.22-1.14-.41-2.28-.72-3.39,0-.09.12-.11.13,0,.25,1.13.6,2.25.94,3.36.16.54.34,1.08.48,1.63l.15.57c1.26-2.06,2.54-4.12,3.92-6.1a2.61,2.61,0,0,1-.14-.85c0-.39-.09-.77-.13-1.16-.1-.87-.2-1.74-.33-2.61a51.14,51.14,0,0,0-.93-5.06.07.07,0,0,1,.13,0c.42,1.67.88,3.33,1.2,5,.15.83.3,1.66.41,2.5.06.42.1.83.14,1.25,0,.13,0,.25.05.38.43-.6.85-1.2,1.3-1.78,1.35-1.78,2.75-3.52,4.17-5.25.05-.06.16,0,.11.08a91.78,91.78,0,0,0-6.66,9.72c-.39.62-.77,1.25-1.15,1.87l.38,0c.49-.07,1-.1,1.49-.14,1-.1,2-.18,3-.26,2-.16,4-.28,6-.5.09,0,.11.12,0,.13-2,.23-4,.56-6,.84-1,.15-2,.28-3,.4a12.06,12.06,0,0,1-2.28.24l-2.36,3.82a3.17,3.17,0,0,1,.53,0h2.85c1.29,0,2.57,0,3.86,0,.08,0,.07.13,0,.13-1.31,0-2.6.08-3.9.15l-1.85.11-.93.07a1.84,1.84,0,0,1-.81,0c-.67,1.08-1.34,2.16-2,3.24s-1.23,2-1.87,3a23.3,23.3,0,0,1-2,3C313.3,376.4,313.19,376.36,313.23,376.28Z" style="fill:#263238"></path><path d="M318.87,354.9a18.21,18.21,0,0,0,.53,2.52c.21.85.46,1.7.74,2.54a.08.08,0,1,1-.16.05c-.26-.83-.49-1.67-.7-2.52s-.34-1.72-.54-2.57C318.71,354.84,318.86,354.81,318.87,354.9Z" style="fill:#263238"></path><path d="M327.57,360.07a.93.93,0,0,1,.64-.24l1.12-.16,2.08-.25c1.45-.17,2.89-.31,4.33-.49.09,0,.11.12,0,.13-1.37.17-2.72.37-4.08.55l-2,.26-1,.11a3.44,3.44,0,0,0-1.1.19C327.57,360.2,327.52,360.11,327.57,360.07Z" style="fill:#263238"></path><path d="M318.89,371.7c.68-.06,1.37-.08,2.05-.1l1,0,.5,0a3.39,3.39,0,0,0,.64,0c.1,0,.11.15,0,.14a2.5,2.5,0,0,0-.61,0l-.53,0-1,.06c-.68,0-1.36.08-2.05.08C318.81,371.84,318.81,371.7,318.89,371.7Z" style="fill:#263238"></path><path d="M314.71,368.74c-.07-.39-.15-.78-.22-1.16l-.42-2.29c0-.09.11-.11.13,0l.51,2.22.24,1.12c0,.17.07.34.11.51a1.75,1.75,0,0,1,.06.55c0,.06-.11.11-.15.05A3,3,0,0,1,314.71,368.74Z" style="fill:#263238"></path><polygon points="320.21 389.98 320.55 400.16 322.66 438.61 356.89 438.61 358.99 400.16 359.34 389.98 320.21 389.98" style="fill:#37474f"></polygon><polygon points="320.21 389.98 320.55 400.16 358.99 400.16 359.34 389.98 320.21 389.98" style="fill:#263238"></polygon><rect x="315.73" y="382.72" width="48.09" height="10.27" transform="translate(679.54 775.72) rotate(180)" style="fill:#37474f"></rect></g><g id="freepik--Table--inject-18"><rect x="56.71" y="372.79" width="26.98" height="4.5" style="fill:#455a64"></rect><polygon points="98.32 438.61 95.41 438.61 71.65 333.42 70.29 327.42 66.02 308.54 64.44 301.49 58.46 275.07 56.37 265.81 66.75 265.81 68.44 275.07 69.55 281.14 70.29 285.19 74.55 308.54 75.92 316.05 98.32 438.61" style="fill:#455a64"></polygon><polygon points="66.75 265.81 68.44 275.07 58.46 275.07 56.37 265.81 66.75 265.81" style="fill:#263238"></polygon><polygon points="75.92 316.05 71.65 333.42 70.29 327.42 66.02 308.54 64.44 301.49 69.55 281.14 70.29 285.19 74.55 308.54 75.92 316.05" style="fill:#263238"></polygon><polygon points="84.21 265.81 82.12 275.07 74.55 308.54 70.29 327.42 45.16 438.61 42.26 438.61 66.02 308.54 70.29 285.19 72.14 275.07 73.83 265.81 84.21 265.81" style="fill:#455a64"></polygon><polygon points="84.21 265.81 82.12 275.07 72.14 275.07 73.83 265.81 84.21 265.81" style="fill:#263238"></polygon><rect x="261.24" y="372.79" width="26.98" height="4.5" style="fill:#455a64"></rect><polygon points="302.85 438.61 299.94 438.61 276.18 333.42 274.82 327.42 270.55 308.54 268.96 301.49 262.99 275.07 260.9 265.81 271.28 265.81 272.97 275.07 274.08 281.14 274.82 285.19 279.08 308.54 280.45 316.05 302.85 438.61" style="fill:#455a64"></polygon><polygon points="271.28 265.81 272.97 275.07 262.99 275.07 260.9 265.81 271.28 265.81" style="fill:#263238"></polygon><polygon points="280.45 316.05 276.18 333.42 274.82 327.42 270.55 308.54 268.96 301.49 274.08 281.14 274.82 285.19 279.08 308.54 280.45 316.05" style="fill:#263238"></polygon><polygon points="288.74 265.81 286.65 275.07 279.08 308.54 274.82 327.42 249.69 438.61 246.79 438.61 270.55 308.54 274.82 285.19 276.67 275.07 278.36 265.81 288.74 265.81" style="fill:#455a64"></polygon><polygon points="288.74 265.81 286.65 275.07 276.67 275.07 278.36 265.81 288.74 265.81" style="fill:#263238"></polygon><rect x="36.16" y="251.81" width="272.79" height="14" style="fill:#455a64"></rect></g><g id="freepik--Device--inject-18"><rect x="161.21" y="248.85" width="66" height="2.96" style="fill:#c7c7c7"></rect><rect x="161.21" y="248.85" width="33.22" height="2.96" style="fill:#dbdbdb"></rect><polygon points="199.76 251.81 264.08 251.81 273.17 208.13 208.85 208.13 199.76 251.81" style="fill:#c7c7c7"></polygon><polygon points="202.51 251.81 266.83 251.81 275.92 208.13 211.59 208.13 202.51 251.81" style="fill:#dbdbdb"></polygon><path d="M234.92,230.94a3.8,3.8,0,0,0,3.84,4.29,4.88,4.88,0,0,0,4.74-4.29,3.79,3.79,0,0,0-3.84-4.28A4.88,4.88,0,0,0,234.92,230.94Z" style="fill:#fff"></path></g><g id="freepik--character-2--inject-18"><path d="M456.84,477c-2.44.8-72.25.4-74.9-1.31-1-.63-6.21-65.49-6.21-65.49l45.23,0,4.15,42.48s26.65,12.11,29.37,14.29S459.28,476.15,456.84,477Z" style="fill:#f7a9a0"></path><path d="M381.94,475.65c2.64,1.7,72.46,2.11,74.9,1.3s.33-7.83-2.37-10c-1.52-1.23-10.62-5.6-18.3-9.18,5.16,2.55,15.89,11.49-16,7-21.58-3.07-34.61-5.82-40.5-7.31C380,467.43,381.07,475.1,381.94,475.65Z" style="fill:#263238"></path><path d="M430.72,437.68l-60.81,1.09s.31-106.29,0-107.82c-.5-2.62-34.95-129.19-34.95-129.19h44.21s7.24,22.18,15.53,47.81c10.39,32.13,22.4,69.67,23.83,75.74C422,340.17,430.72,437.68,430.72,437.68Z" style="fill:#263238"></path><path d="M369.91,330.87c-1-4.52-34.92-129.11-34.92-129.11h21.74Z" style="fill:#37474f"></path><path d="M293.74,475.66c-2.44-.8-58.35-42.6-59.47-45.55-.44-1.11,5.18-9.61,12.26-19.69.07-.1.15-.2.22-.31,1.46-2.08,28.31-35.19,28.31-35.19l35.78,26.62-27.72,35.14-.47.6s14.24,25.57,15.13,28.94S296.18,476.48,293.74,475.66Z" style="fill:#f7a9a0"></path><path d="M243,415.44c-5.34,7.77-9.13,13.75-8.75,14.68,1.11,2.94,57,44.74,59.46,45.55s4.92-6.1,4-9.45c-.54-2.05-6-12.35-10.25-20.09,2.69,5.47,5,16.65-17.57-4.11C256,429.21,247.63,420.5,243,415.44Z" style="fill:#263238"></path><path d="M376.94,201.76s-1.14,36-7.88,43.44c0,0-11.21,72.16-13.66,92.24s-50.09,104.37-50.09,104.37l-55.42-41.95s59.25-66.05,59.43-67.41c1.35-10.57,8.61-83.07,8-84.89-6.25-18.65,3.92-45.8,3.92-45.8Z" style="fill:#263238"></path><path d="M379.67,239a64.78,64.78,0,0,1-11.44,5.59,121.08,121.08,0,0,1-12,4.2.12.12,0,0,0,.07.22c4-1.1,8-1.88,11.86-3.24-.33,1.32-.51,2.7-.73,4-.28,1.71-.56,3.43-.82,5.14-.51,3.43-1,6.88-1.42,10.32-.94,6.88-1.92,13.76-2.84,20.65-.52,3.83-1,7.67-1.34,11.52,0,.17.25.19.28,0,1.36-6.79,2.28-13.67,3.29-20.53s2.13-13.71,3.07-20.59c.27-2,.53-3.94.76-5.91a44.25,44.25,0,0,0,.49-4.89l.07,0a37.34,37.34,0,0,0,10.86-6.25C380,239.16,379.82,238.92,379.67,239Z" style="fill:#37474f"></path><path d="M372.73,208.23c0-.17-.32-.18-.3,0,.56,5.63.67,10.62.69,15.93,0,2.46-.69,16.15-5,15.57-.72-.1-1.15-.76-1.36-1.82a17,17,0,0,1,.17-4.2c.21-2.87.32-5.74.29-8.62a78.41,78.41,0,0,0-1.67-16,.14.14,0,0,0-.28,0,148,148,0,0,1,.79,22.18c-.2,3.56-1.47,9,2.25,9.21s5.38-8.89,5.61-11.35A81.53,81.53,0,0,0,372.73,208.23Z" style="fill:#37474f"></path><path d="M368.25,240.08a22.08,22.08,0,0,0-.69,2.89,6.4,6.4,0,0,0-.18,2.34c0,.15.23.14.3,0a7.79,7.79,0,0,0,.77-2.33c.24-.89.5-1.79.72-2.69A.48.48,0,0,0,368.25,240.08Z" style="fill:#37474f"></path><path d="M367.5,147.79c22.34-8.11,44.33-19.75,46.66-26.23,2.57-7.14,8-28,7-49.1-.16-3.83-33.1.78-31.79,3.14,3.84,6.94-1.27,36.86-2.19,37.81-1.22,1.25-15.7,13.11-27.79,23.4C344.84,149.24,355.36,152.19,367.5,147.79Z" style="fill:#f7a9a0"></path><path d="M421.24,73.32c0-1.88.48-17.23-2.67-24.84-1.68-4-7.52-14.6-10.1-13.89-2.36.65-1.47,3.93-1.47,3.93s-2.67-4.67-5.93-3.73-1.48,6.41-1.48,6.41-3.1-4.6-6.28-3.43-.47,6.37-.47,6.37-2.64-4.33-4.86-2.26c-2.67,2.48,3.09,9.93,4.13,14.65.23,1.07,3.21,22.06,3.21,22.06Z" style="fill:#f7a9a0"></path><path d="M392.73,44.31c4.22,5.48,5.12,8.61,5.76,15.4,0,.13.21.14.21,0,0-6.7-.58-10.79-5.72-15.62C392.73,43.85,392.53,44.05,392.73,44.31Z" style="fill:#263238"></path><path d="M399.46,41.35c3.89,6.08,4.89,9.47,6.08,16.53,0,.1.19.08.18,0-.58-7-1.24-11.09-5.92-16.65C399.59,41,399.28,41.08,399.46,41.35Z" style="fill:#263238"></path><path d="M407.05,38.87c3.34,6.16,4.6,9.82,4.88,16.82a.13.13,0,0,0,.25,0c.42-7.17-1.12-11.75-4.93-16.91C407,38.43,406.84,38.48,407.05,38.87Z" style="fill:#263238"></path><path d="M391,84.6S385.1,76,383.77,72.35,382.54,53.18,385.89,53c4.32-.22,6,8.74,6.29,13.23,0,0,10-.51,12.62,5.65S391,84.6,391,84.6Z" style="fill:#f7a9a0"></path><path d="M387.09,53.34c4.09,2.64,4.06,8.57,4.64,12.91a.4.4,0,0,0,.57.33c4.21.06,10.12,1.37,12.6,5a.1.1,0,0,0,.18-.1c-2.13-4.3-7.83-6.07-12.44-5.84-.53-4.46-.76-10.41-5.52-12.39C387.09,53.29,387.07,53.32,387.09,53.34Z" style="fill:#263238"></path><path d="M389.58,86.42l33.15-1.61s-2.86,32.1-7.68,39.1c-4.55,6.6-36.27,21.8-50.28,25.34-16.33,4.13-15.68-4.38-6.88-11.67s27.7-24.26,28.48-26.05S389.58,86.42,389.58,86.42Z" style="fill:#FF725E"></path><path d="M402.07,92.86c3.59-.17,7.17-.31,10.75-.62,2-.17,4.07-.33,6.1-.53.08,0,.08-.14,0-.14-3.6,0-7.21.07-10.81.26s-7.17.35-10.75.59q-3.06.21-6.09.6s0,.07,0,.07C394.87,93.19,398.47,93,402.07,92.86Z" style="fill:#263238"></path><path d="M377.26,189l2.11,13.36-58.13-.12s1.66-42.9,17.93-59.54c8.13-8.32,17.37-7.4,23.08-1.25,1.45,1.56,18.55,22.6,20.16,31.64C383.81,181.09,377.26,189,377.26,189Z" style="fill:#ebebeb"></path><path d="M367.5,184.77a62,62,0,0,0-9.19,1.59c-1.5.4-3,.86-4.43,1.36-.73.24-1.46.47-2.2.69a10.06,10.06,0,0,1-2.36.46.06.06,0,1,0,0,.11,15.79,15.79,0,0,0,2.28-.06,16,16,0,0,0,2.17-.43c1.52-.39,3-.84,4.54-1.25,3.06-.81,6.12-1.63,9.23-2.22C367.68,185,367.64,184.75,367.5,184.77Z" style="fill:#263238"></path><path d="M375.18,187.44a70.52,70.52,0,0,0-7.69-.3c-1.29,0-2.56.13-3.84.26-.61.07-1.21.14-1.82.23s-1.33.27-2,.35c-.07,0-.07.12,0,.11.63-.06,1.28,0,1.91,0l1.92-.07,3.84-.12c2.56-.11,5.11-.2,7.67-.22C375.32,187.65,375.31,187.46,375.18,187.44Z" style="fill:#263238"></path><polygon points="381.79 207.22 319.54 207.22 320.51 201.76 380.82 201.76 381.79 207.22" style="fill:#263238"></polygon><path d="M374.52,208.76H360.73v-8.29h13.79Zm-11.79-2h9.79v-4.29h-9.79Z" style="fill:#FF725E"></path><path d="M349.62,136.67s3.79,37.83,3.79,39.84-3.7,71-3.7,71l-43.37-11.39,14.26-39.81s1.13-28.53,15.07-49.44C339.93,140.5,344.92,137.06,349.62,136.67Z" style="fill:#FF725E"></path><path d="M353.4,176.51c0,.9-.73,15.12-1.55,30.6l-1-26.06-4.18-17.83,3.74-7.08-5.58-3.91,4.79-15.56S353.4,174.5,353.4,176.51Z" style="opacity:0.1"></path><path d="M362.25,141.47s17,24.82,17.1,30.94a44.26,44.26,0,0,1-3.11,16.85L387.58,242l5.15-4.66-14.47-48s5-7.2,4.7-15C382.6,164.15,362.25,141.47,362.25,141.47Z" style="fill:#FF725E"></path><path d="M376.24,189.26s3.42-13.3,2.38-18.51-16.37-29.28-16.37-29.28l9.59,12-.72.61,6.09,7.25a34.76,34.76,0,0,1,2.35,13.2,42.34,42.34,0,0,1-2.9,14.49l3.13,16.67Z" style="fill:#FF725E"></path><path d="M376.24,189.26s3.42-13.3,2.38-18.51-16.37-29.28-16.37-29.28l9.59,12-.72.61,6.09,7.25a34.76,34.76,0,0,1,2.35,13.2,42.34,42.34,0,0,1-2.9,14.49l3.13,16.67Z" style="opacity:0.1"></path><path d="M382.45,179.44a25.5,25.5,0,0,0,.17-6.35,19.14,19.14,0,0,0-2.14-5.92c-.94-1.9-2-3.75-3.09-5.58s-2.2-3.65-3.36-5.45q2,2.54,3.69,5.24c1.15,1.81,2.23,3.65,3.2,5.57a17.91,17.91,0,0,1,2.06,6.1A21.39,21.39,0,0,1,382.45,179.44Z" style="fill:#263238"></path><path d="M375.46,157.19a11.68,11.68,0,0,1,1.09,1.7,5.43,5.43,0,0,1,.66,1.91,6.24,6.24,0,0,0-.42-.91l-.46-.88C376,158.41,375.71,157.82,375.46,157.19Z" style="fill:#263238"></path><path d="M290.23,291.8l52.84,8.78c14.28,2.37,13.89-9.43,12.45-22S352,247,339.27,244.89s-13.71-2.28-13.71-2.28l-13.73-2.28C299.07,238.21,291,255.54,285.55,267S275.94,289.42,290.23,291.8Z" style="fill:#a6a6a6"></path><path d="M334.73,250.62a4.44,4.44,0,1,0,5.11-3.65A4.44,4.44,0,0,0,334.73,250.62Z" style="opacity:0.1"></path><path d="M305.52,245.77a4.44,4.44,0,1,0,5.11-3.65A4.44,4.44,0,0,0,305.52,245.77Z" style="opacity:0.1"></path><path d="M336.14,250.86a3,3,0,1,0,3.46-2.48A3,3,0,0,0,336.14,250.86Z" style="fill:#263238"></path><path d="M306.94,246a3,3,0,1,0,3.46-2.47A3,3,0,0,0,306.94,246Z" style="fill:#263238"></path><path d="M339.61,253.16a1.74,1.74,0,0,1-.39,0,1.8,1.8,0,0,1-1.37-2.16c2.62-11.71,8-43.74,1.49-51.25a3.71,3.71,0,0,0-3.32-1.36,1.81,1.81,0,0,1-.28-3.6,7.34,7.34,0,0,1,6.33,2.59c3.88,4.48,4.92,15.08,3.08,31.5-1.34,11.93-3.75,22.8-3.78,22.91A1.82,1.82,0,0,1,339.61,253.16Z" style="fill:#a6a6a6"></path><polygon points="381.41 207.55 369.98 240.78 351.31 235.97 357.35 201.35 381.41 207.55" style="fill:#FF725E"></polygon><rect x="355.29" y="201.29" width="28.33" height="5.11" transform="translate(62.5 -85.69) rotate(14.44)" style="fill:#455a64"></rect><polygon points="381.93 204.41 358.25 198.32 361.07 193.12 381.97 198.5 381.93 204.41" style="fill:#37474f"></polygon><path d="M371.41,223.38c-1.13,4.4-5,7.23-8.53,6.3s-5.56-5.23-4.42-9.64,5-7.23,8.53-6.31S372.55,219,371.41,223.38Z" style="fill:#fff"></path><path d="M335.31,146c-21.73,25.18-39.12,60.55-33,68.13,8,9.86,20.13,17.42,31.79,22,3.7,1.43,17.39-25.59,13.66-27.6-6.34-3.41-17.59-10.54-18.09-10.65-1.07-.25,12.09-33.49,16.88-46C353.82,133,344.87,134.91,335.31,146Z" style="fill:#f7a9a0"></path><path d="M382.37,223.39a4.71,4.71,0,0,1-3.26,4.29,7,7,0,0,1,1,4.66c-.54,2.83-5.22,3.22-5.22,3.22a8.66,8.66,0,0,1,.24,5.08c-.79,2.66-5.46,3.73-5.46,3.73A7.6,7.6,0,0,1,367,249c-3.85,3-10.81.41-15.26-1.18s-15.56-10.25-17.85-11.69l9.94-28.61s22,1.44,26.92,4C375,213.74,382.39,219.71,382.37,223.39Z" style="fill:#f7a9a0"></path><path d="M379.07,227.15c-3.88-3.4-8.56-5.47-13.11-7.8a.09.09,0,0,0-.08.16c4.56,2.26,8.6,5.4,13.06,7.84C379.06,227.42,379.18,227.24,379.07,227.15Z" style="fill:#263238"></path><path d="M374.9,235.16a13.4,13.4,0,0,0-3.1-1.66c-1.14-.52-2.29-1-3.44-1.48-2.31-1-4.64-1.85-7-2.68-.1,0-.18.11-.08.16,2.3.95,4.59,1.94,6.85,3l3.37,1.6a16.44,16.44,0,0,0,3.24,1.38A.18.18,0,0,0,374.9,235.16Z" style="fill:#263238"></path><path d="M369.54,244.33a9.12,9.12,0,0,0-2.87-1.35l-3.17-1.25c-2.12-.85-4.23-1.69-6.31-2.61a.09.09,0,0,0-.08.16c2.11.94,4.21,1.91,6.33,2.84l3.13,1.35a9,9,0,0,0,2.94,1C369.56,244.44,369.58,244.36,369.54,244.33Z" style="fill:#263238"></path><path d="M346.05,206.16,330.37,236S302,220.15,299.85,211s17.27-50.49,35.14-66.16c9-7.88,19.28-14.81,12.59,7.49s-16.57,44-16.38,44.42S346.05,206.16,346.05,206.16Z" style="fill:#FF725E"></path><path d="M330.23,220c1.78-3.36,3.6-6.7,5.26-10.12.94-1.94,1.9-3.88,2.83-5.84,0-.07-.09-.14-.13-.07-1.93,3.29-3.86,6.6-5.63,10s-3.56,6.71-5.29,10.1c-1,1.93-1.9,3.88-2.76,5.87,0,0,.05.08.07,0C326.62,226.72,328.43,223.36,330.23,220Z" style="fill:#263238"></path><path d="M331,234.8c-.18.43-.37.85-.56,1.27l0,.08-.09,0c-1.75-.84-3.44-1.79-5.14-2.73s-3.35-2-5-3-3.25-2.12-4.8-3.3a44.27,44.27,0,0,1-4.47-3.74c3.15,2.27,6.4,4.35,9.67,6.42l9.82,6.2-.12,0C330.52,235.59,330.77,235.2,331,234.8Z" style="fill:#263238"></path><path d="M345.5,207.22l.51-1.08,0,.06c-4.17-2.3-8.29-4.68-12.35-7.19-.51-.31-1-.63-1.51-1-.25-.17-.5-.33-.75-.52l-.19-.14-.09-.07-.14-.13c-.08-.11-.18-.16-.22-.33a1,1,0,0,1,0-.3,1.06,1.06,0,0,1,0-.14c.34-1.22.75-2.3,1.15-3.43q1.23-3.36,2.51-6.69c1.76-4.43,3.49-8.86,5.3-13.26l2.72-6.6c.93-2.2,1.85-4.39,2.72-6.6-1.39,4.56-3.09,9-4.73,13.47s-3.4,8.89-5.08,13.35l-2.58,6.65c-.4,1.1-.85,2.24-1.16,3.31l0,.08a.08.08,0,0,0,0-.08s0,0,0,0l0,0,.08.07.17.12c.22.18.47.34.71.51l1.46,1c4,2.63,8,5.17,12,7.78l0,0,0,0Z" style="fill:#263238"></path><path d="M341.84,168.56a15.18,15.18,0,0,1,1.5-2.82,18,18,0,0,1,2-2.52,9.28,9.28,0,0,1-1.33,2.93A10.36,10.36,0,0,1,341.84,168.56Z" style="fill:#263238"></path><path d="M309.9,248.15l-.35,0a1.82,1.82,0,0,1-1.42-2.13,197.25,197.25,0,0,1,7-24.69c6.18-17,13.13-26,20.65-26.56a1.81,1.81,0,1,1,.28,3.6c-12.23.95-21.72,35.23-24.35,48.36A1.8,1.8,0,0,1,309.9,248.15Z" style="fill:#a6a6a6"></path><path d="M368.1,96c6.47,5.94,8.67,16.06,8.67,16.06s6.39,10,5,15.65a10.17,10.17,0,0,1-6.18,7.13l.47-3.11s-1.84,4-8.46,5.92-15.54.17-20.24-2a17.7,17.7,0,0,1-7-5.67l1.91,4.41a13.27,13.27,0,0,1-10.63-6.7c-4.14-6.75,6.52-17.12,7.38-19.3s1.4-17.79,17.89-15.77C356.86,92.66,363.64,91.93,368.1,96Z" style="fill:#263238"></path><path d="M377.9,134.35a14.79,14.79,0,0,0,4.14-4.71,9.5,9.5,0,0,0,.78-6.18,21.34,21.34,0,0,0-3.36-6.79c-1.42-2.18-3-4.27-4.4-6.48-.08-.12.11-.23.2-.14a59.4,59.4,0,0,1,4.28,5.2,26.8,26.8,0,0,1,3.44,5.37,10.22,10.22,0,0,1,1,5.7,9.88,9.88,0,0,1-1.87,4.39,21.32,21.32,0,0,1-4.11,3.77C377.9,134.56,377.81,134.42,377.9,134.35Z" style="fill:#263238"></path><path d="M329.92,120.68c1.73-5.81,6.73-9.66,9.66-14.79,1.59-2.77,2.78-5.82,4.89-8.26.06-.07.18,0,.12.1-1.73,2.19-2.67,4.77-3.88,7.25a42.35,42.35,0,0,1-4.6,7c-3.09,4-6.79,8.79-5.82,14.2.45,2.51,2,5.23,4.66,5.91.1,0,.05.19-.05.15a8.07,8.07,0,0,1-4.69-4.33A10.29,10.29,0,0,1,329.92,120.68Z" style="fill:#263238"></path><path d="M329.74,122.23a10.57,10.57,0,0,1,1.18-6.27,15,15,0,0,1,4.51-4.56c2-1.45,4.09-2.83,5.31-5,.05-.1.18,0,.13.09-1.92,3.64-5.77,5.46-8.31,8.57-2.89,3.55-2.69,8.55-.44,12.38a17.38,17.38,0,0,0,5.71,5.73s0,.08,0,.06C333.82,130.8,330.25,127,329.74,122.23Z" style="fill:#263238"></path><path d="M350.2,139.91c.45,1.07,6.09,6.67,11.14,5.55,1.65-.37,1-9.43,1-9.43l.46-9.76-12.26-5.15-1.76-.66s0,2.67.15,6c0,.15,0,.31,0,.47s0,.37,0,.54c0,.5,0,1,0,1.52s0,.76.05,1.16.05.8.07,1.21A61.17,61.17,0,0,0,350.2,139.91Z" style="fill:#f7a9a0"></path><path d="M362.81,126.26l-.34,7.38c-4.71,1.55-10,.64-13.18-.23-.07-.67-.13-1.36-.17-2,0-.4-.05-.79-.07-1.2s0-.78-.05-1.16,0-1,0-1.51l0-1c-.1-3.33-.14-6-.14-6l1.76.66Z" style="fill:#263238"></path><path d="M337.64,112.94c-1.13,17.1,9,19.71,12.67,19.95,3.35.22,14.77.54,17.67-16.35s-4.7-22.83-12.33-23.74S338.77,95.84,337.64,112.94Z" style="fill:#f7a9a0"></path><path d="M340.35,110.45a11.33,11.33,0,0,0,1.16-.23,1.94,1.94,0,0,0,1.14-.47.6.6,0,0,0,0-.74,1.52,1.52,0,0,0-1.49-.37,2.26,2.26,0,0,0-1.4.77A.65.65,0,0,0,340.35,110.45Z" style="fill:#263238"></path><path d="M352,110.26c-.4-.05-.76-.17-1.16-.26a1.9,1.9,0,0,1-1.12-.48.62.62,0,0,1,0-.75,1.54,1.54,0,0,1,1.5-.34,2.27,2.27,0,0,1,1.38.8A.65.65,0,0,1,352,110.26Z" style="fill:#263238"></path><path d="M349.46,113.63s.09.06.09.11c-.08,1.16,0,2.51,1.07,2.93,0,0,0,.07,0,.07C349.33,116.51,349.2,114.72,349.46,113.63Z" style="fill:#263238"></path><path d="M350.55,112.45c1.88-.08,1.89,3.69.15,3.76S349,112.51,350.55,112.45Z" style="fill:#263238"></path><path d="M351.29,112.64c.33.21.65.59,1,.63s.8-.36,1.1-.74c0,0,.06,0,.06,0,0,.72-.26,1.46-1,1.57s-1.21-.53-1.4-1.26C351,112.76,351.15,112.56,351.29,112.64Z" style="fill:#263238"></path><path d="M342.92,113.51s-.09,0-.09.1c0,1.17-.13,2.51-1.19,2.89a0,0,0,0,0,0,.07C342.94,116.39,343.14,114.61,342.92,113.51Z" style="fill:#263238"></path><path d="M341.89,112.28c-1.88-.15-2.05,3.61-.31,3.76S343.46,112.41,341.89,112.28Z" style="fill:#263238"></path><path d="M341.09,112.49c-.3.19-.61.54-1,.55s-.7-.42-.94-.82c0,0-.06,0-.06,0-.06.72.14,1.48.83,1.65s1.12-.44,1.32-1.15C341.31,112.63,341.22,112.42,341.09,112.49Z" style="fill:#263238"></path><path d="M349.68,123.56c-.29.26-.6.61-1,.62a3.15,3.15,0,0,1-1.23-.38,0,0,0,0,0-.06.06,1.58,1.58,0,0,0,1.44.73,1.24,1.24,0,0,0,1-1C349.81,123.56,349.73,123.53,349.68,123.56Z" style="fill:#263238"></path><path d="M349.22,120.11a3.91,3.91,0,0,1-2.73,1.52,4.72,4.72,0,0,1-1.4-.06.75.75,0,0,1-.26,0l-.25-.06a.27.27,0,0,1-.2-.27h0a.22.22,0,0,1,0-.11h0V121c0-.88.24-2.2.24-2.2-.33.13-2,.73-2,.27a58.75,58.75,0,0,1,2.46-11.6.11.11,0,0,1,.21,0c-.37,3.64-1.39,7.2-1.82,10.85a6.9,6.9,0,0,1,1.88-.4c.12,0-.43,2.55-.41,2.95,0,0,0,0,0,0a5.38,5.38,0,0,0,4.11-.92C349.21,119.94,349.29,120,349.22,120.11Z" style="fill:#263238"></path><path d="M345.48,121.35a4.4,4.4,0,0,0,1.73,1.49,2,2,0,0,0,1.23.14c.9-.19,1-1,.84-1.72a5.15,5.15,0,0,0-.35-1.09A5.79,5.79,0,0,1,345.48,121.35Z" style="fill:#263238"></path><path d="M347.21,122.84a2,2,0,0,0,1.23.14c.9-.19,1-1,.84-1.72A2.11,2.11,0,0,0,347.21,122.84Z" style="fill:#ff98b9"></path><path d="M348.52,96.23a7.6,7.6,0,0,0,.23,4.43c1.85,3.82,6.45,2.79,8,4.3s1,4.35,2.32,5.76c1.86,2,4.38,1.18,4.69,2.5s1.21,5.53,2.89,6.06S376,91.78,354,92.75c0,0-3-1.22-7.7,1.17-5.17,2.63-7.38,11.15-7.38,11.15s.11-.12.86-.79c1.06-.94,1.46-1.81,2.24-2.42,1.22-1,1.89-.6,3.16-1.54A14.3,14.3,0,0,0,348.52,96.23Z" style="fill:#263238"></path><path d="M348.85,95a15.53,15.53,0,0,0-.63,3.37,6.23,6.23,0,0,0,.49,3.27,4.6,4.6,0,0,0,2.53,1.95c1.05.39,2.21.49,3.34.94a3.45,3.45,0,0,1,1.48,1.1,4.65,4.65,0,0,1,.66,1.69,6.12,6.12,0,0,0,1.23,3,3.79,3.79,0,0,0,3,1.23c1.11,0,2.34-.32,3.42.16-1.12-.39-2.25,0-3.41.1a4.12,4.12,0,0,1-3.27-1.2,6.12,6.12,0,0,1-1.41-3.22,4.26,4.26,0,0,0-.6-1.5,2.89,2.89,0,0,0-1.27-.9c-1-.42-2.18-.55-3.29-1a6,6,0,0,1-1.58-.85,3.56,3.56,0,0,1-1.17-1.38,6.44,6.44,0,0,1-.37-3.49A14.7,14.7,0,0,1,348.85,95Z" style="fill:#263238"></path><path d="M348.43,96a11.54,11.54,0,0,1-1.05,3,5.63,5.63,0,0,1-2.2,2.44,7.85,7.85,0,0,1-1.52.6,2.62,2.62,0,0,0-1.19.8,7.56,7.56,0,0,1-1,1.3,3.49,3.49,0,0,1-1.39.83,4,4,0,0,0,1.19-1,7.85,7.85,0,0,0,.8-1.36,2.85,2.85,0,0,1,1.36-1,8.53,8.53,0,0,0,1.43-.59A6,6,0,0,0,347,98.84,22.72,22.72,0,0,0,348.43,96Z" style="fill:#263238"></path><path d="M363.11,116.15s3.63-5.42,6.09-4.14-.2,9.1-3,10.21a2.9,2.9,0,0,1-3.92-1.47Z" style="fill:#f7a9a0"></path><path d="M368.38,114.23a0,0,0,0,1,0,.08c-2,.85-3,2.72-3.7,4.66a1.6,1.6,0,0,1,2.39-.49c.05,0,0,.12,0,.11a1.77,1.77,0,0,0-2,.66,8,8,0,0,0-.91,1.61c-.09.18-.41.09-.35-.12v0C363.74,118.15,365.65,114.54,368.38,114.23Z" style="fill:#263238"></path><path d="M364.19,121.48a.85.85,0,0,0,.85.84.86.86,0,0,0,.84-.86.84.84,0,0,0-.86-.83A.83.83,0,0,0,364.19,121.48Z" style="fill:#fff"></path><path d="M350.2,139.91c.83,3.47,14.72,25.5,15.68,24.5s-3.63-22.78-3.63-22.78Z" style="fill:#f7a9a0"></path></g><g id="freepik--speech-bubble--inject-18"><path d="M331.61,93.71a12.35,12.35,0,0,0,2.11-6.82c0-8.63-9.49-15.63-21.18-15.63s-21.16,7-21.16,15.63,9.47,15.64,21.16,15.64a25.41,25.41,0,0,0,14.61-4.33l7.29,1.86Z" style="fill:#fff"></path><path d="M331.61,93.71a12.62,12.62,0,0,0,2-6.45,12.12,12.12,0,0,0-1.79-6.44A19.09,19.09,0,0,0,321.12,73a28.23,28.23,0,0,0-13.38-.86A22,22,0,0,0,295.86,78a13.55,13.55,0,0,0-3.45,5.58,11.09,11.09,0,0,0-.09,6.48,13.6,13.6,0,0,0,3.37,5.64,19.58,19.58,0,0,0,5.43,3.88,24.3,24.3,0,0,0,6.39,2.09,28.2,28.2,0,0,0,6.74.47A24.77,24.77,0,0,0,327,98l.09-.06.1,0,7.27,2-.14.16Zm0,0,2.94,6.3.1.22-.24-.06-7.32-1.75.19,0a25.15,25.15,0,0,1-13,4.44,27.26,27.26,0,0,1-13.57-2.48,20.38,20.38,0,0,1-5.7-4,14.51,14.51,0,0,1-3.64-6,12.1,12.1,0,0,1,.06-7,14.85,14.85,0,0,1,3.73-6,20.72,20.72,0,0,1,5.76-4,24.68,24.68,0,0,1,6.65-2.06,28.83,28.83,0,0,1,6.94-.34,28.23,28.23,0,0,1,6.81,1.39,22.41,22.41,0,0,1,6.17,3.17,16.78,16.78,0,0,1,4.66,5.12,12,12,0,0,1-.56,13.11Z" style="fill:#263238"></path><path d="M306.15,90.64v-7.5a.69.69,0,0,1,.7-.7.7.7,0,0,1,.72.7v3h3.29v-3a.69.69,0,0,1,.7-.7.7.7,0,0,1,.71.7v7.5a.7.7,0,0,1-.71.7.69.69,0,0,1-.7-.7v-3h-3.29v3a.7.7,0,0,1-.72.7A.69.69,0,0,1,306.15,90.64Z" style="fill:#263238"></path><path d="M314.63,83.14a.68.68,0,0,1,.7-.7.7.7,0,0,1,.71.7v7.5a.7.7,0,0,1-.71.7.68.68,0,0,1-.7-.7Z" style="fill:#263238"></path><path d="M318.28,88.28V83.14a.71.71,0,0,1,.7-.7.7.7,0,0,1,.69.7v5.14a.69.69,0,0,1-.69.7A.7.7,0,0,1,318.28,88.28Zm.7,3.06a.7.7,0,0,1-.7-.7v-.25a.71.71,0,0,1,.7-.7.7.7,0,0,1,.69.7v.25A.69.69,0,0,1,319,91.34Z" style="fill:#263238"></path></g></svg>